<?xml version="1.0" encoding="UTF-8" standalone="no"?>
<!-- Created with Inkscape (http://www.inkscape.org/) -->

<svg
   width="703.20483"
   height="703.20483"
   viewBox="0 0 186.05627 186.05628"
   version="1.1"
   id="svg1"
   xml:space="preserve"
   xmlns="http://www.w3.org/2000/svg"
   xmlns:svg="http://www.w3.org/2000/svg"><defs
     id="defs1"><linearGradient
       id="swatch776"><stop
         style="stop-color:#07005b;stop-opacity:1;"
         offset="0"
         id="stop776" /></linearGradient><style
       type="text/css"
       id="style1"><![CDATA[
    .svglite line, .svglite polyline, .svglite polygon, .svglite path, .svglite rect, .svglite circle {
      fill: none;
      stroke: #000000;
      stroke-linecap: round;
      stroke-linejoin: round;
      stroke-miterlimit: 10.00;
    }
    .svglite text {
      white-space: pre;
    }
  ]]></style><style
       type="text/css"
       id="style1-3"><![CDATA[
    .svglite line, .svglite polyline, .svglite polygon, .svglite path, .svglite rect, .svglite circle {
      fill: none;
      stroke: #000000;
      stroke-linecap: round;
      stroke-linejoin: round;
      stroke-miterlimit: 10.00;
    }
    .svglite text {
      white-space: pre;
    }
  ]]></style><style
       type="text/css"
       id="style1-8"><![CDATA[
    .svglite line, .svglite polyline, .svglite polygon, .svglite path, .svglite rect, .svglite circle {
      fill: none;
      stroke: #000000;
      stroke-linecap: round;
      stroke-linejoin: round;
      stroke-miterlimit: 10.00;
    }
    .svglite text {
      white-space: pre;
    }
  ]]></style><style
       type="text/css"
       id="style1-7"><![CDATA[
    .svglite line, .svglite polyline, .svglite polygon, .svglite path, .svglite rect, .svglite circle {
      fill: none;
      stroke: #000000;
      stroke-linecap: round;
      stroke-linejoin: round;
      stroke-miterlimit: 10.00;
    }
    .svglite text {
      white-space: pre;
    }
  ]]></style><style
       type="text/css"
       id="style1-1"><![CDATA[
    .svglite line, .svglite polyline, .svglite polygon, .svglite path, .svglite rect, .svglite circle {
      fill: none;
      stroke: #000000;
      stroke-linecap: round;
      stroke-linejoin: round;
      stroke-miterlimit: 10.00;
    }
    .svglite text {
      white-space: pre;
    }
  ]]></style><clipPath
       id="cpMC4wMHwzNDAuMTZ8MC4wMHwzNDAuMTY=-6"><rect
         x="0"
         y="0"
         width="340.16"
         height="340.16"
         id="rect2-5" /></clipPath><style
       type="text/css"
       id="style1-23"><![CDATA[
    .svglite line, .svglite polyline, .svglite polygon, .svglite path, .svglite rect, .svglite circle {
      fill: none;
      stroke: #000000;
      stroke-linecap: round;
      stroke-linejoin: round;
      stroke-miterlimit: 10.00;
    }
    .svglite text {
      white-space: pre;
    }
  ]]></style></defs><g
     id="layer5"
     transform="translate(-551.58772,-756.90525)"><g
       id="g763"
       transform="matrix(0.54696695,0,0,0.54696695,551.58768,756.90526)"
       style="fill:#00ffff;stroke-width:1.70201"><rect
         width="100%"
         height="100%"
         style="fill:#ffffff;stroke:none;stroke-width:1.70201"
         id="rect649"
         x="0"
         y="0" /><g
         clip-path="url(#cpMC4wMHwzNDAuMTZ8MC4wMHwzNDAuMTY=-6)"
         id="g762"
         style="stroke-width:1.70201"><rect
           x="0"
           y="5.6999998e-14"
           width="340.16"
           height="340.16"
           style="fill:#6560e0;stroke:#6560e0;stroke-width:0.483728"
           id="rect650" /><circle
           cx="15.46"
           cy="324.70001"
           r="1.95"
           style="fill:#ffffff;stroke:#ffffff;stroke-width:0.457929"
           id="circle650" /><circle
           cx="59.639999"
           cy="324.70001"
           r="1.95"
           style="fill:#ffffff;stroke:#ffffff;stroke-width:0.457929"
           id="circle651" /><circle
           cx="103.81"
           cy="324.70001"
           r="1.95"
           style="fill:#ffffff;stroke:#ffffff;stroke-width:0.457929"
           id="circle652" /><circle
           cx="147.99001"
           cy="324.70001"
           r="1.95"
           style="fill:#ffffff;stroke:#ffffff;stroke-width:0.457929"
           id="circle653" /><circle
           cx="192.17"
           cy="324.70001"
           r="1.95"
           style="fill:#ffffff;stroke:#ffffff;stroke-width:0.457929"
           id="circle654" /><circle
           cx="236.34"
           cy="324.70001"
           r="1.95"
           style="fill:#ffffff;stroke:#ffffff;stroke-width:0.457929"
           id="circle655" /><circle
           cx="280.51999"
           cy="324.70001"
           r="1.95"
           style="fill:#ffffff;stroke:#ffffff;stroke-width:0.457929"
           id="circle656" /><circle
           cx="324.70001"
           cy="324.70001"
           r="1.95"
           style="fill:#ffffff;stroke:#ffffff;stroke-width:0.457929"
           id="circle657" /><circle
           cx="37.549999"
           cy="302.60999"
           r="1.95"
           style="fill:#ffffff;stroke:#ffffff;stroke-width:0.457929"
           id="circle658" /><circle
           cx="81.730003"
           cy="302.60999"
           r="1.95"
           style="fill:#ffffff;stroke:#ffffff;stroke-width:0.457929"
           id="circle659" /><circle
           cx="125.9"
           cy="302.60999"
           r="1.95"
           style="fill:#ffffff;stroke:#ffffff;stroke-width:0.457929"
           id="circle660" /><circle
           cx="170.08"
           cy="302.60999"
           r="1.95"
           style="fill:#ffffff;stroke:#ffffff;stroke-width:0.457929"
           id="circle661" /><circle
           cx="214.25999"
           cy="302.60999"
           r="1.95"
           style="fill:#ffffff;stroke:#ffffff;stroke-width:0.457929"
           id="circle662" /><circle
           cx="258.42999"
           cy="302.60999"
           r="1.95"
           style="fill:#ffffff;stroke:#ffffff;stroke-width:0.457929"
           id="circle663" /><circle
           cx="302.60999"
           cy="302.60999"
           r="1.95"
           style="fill:#ffffff;stroke:#ffffff;stroke-width:0.457929"
           id="circle664" /><circle
           cx="15.46"
           cy="280.51999"
           r="1.95"
           style="fill:#ffffff;stroke:#ffffff;stroke-width:0.457929"
           id="circle665" /><circle
           cx="59.639999"
           cy="280.51999"
           r="1.95"
           style="fill:#ffffff;stroke:#ffffff;stroke-width:0.457929"
           id="circle666" /><circle
           cx="103.81"
           cy="280.51999"
           r="1.95"
           style="fill:#ffffff;stroke:#ffffff;stroke-width:0.457929"
           id="circle667" /><circle
           cx="147.99001"
           cy="280.51999"
           r="1.95"
           style="fill:#ffffff;stroke:#ffffff;stroke-width:0.457929"
           id="circle668" /><circle
           cx="192.17"
           cy="280.51999"
           r="1.95"
           style="fill:#ffffff;stroke:#ffffff;stroke-width:0.457929"
           id="circle669" /><circle
           cx="236.34"
           cy="280.51999"
           r="1.95"
           style="fill:#ffffff;stroke:#ffffff;stroke-width:0.457929"
           id="circle670" /><circle
           cx="280.51999"
           cy="280.51999"
           r="1.95"
           style="fill:#ffffff;stroke:#ffffff;stroke-width:0.457929"
           id="circle671" /><circle
           cx="324.70001"
           cy="280.51999"
           r="1.95"
           style="fill:#ffffff;stroke:#ffffff;stroke-width:0.457929"
           id="circle672" /><circle
           cx="37.549999"
           cy="258.42999"
           r="1.95"
           style="fill:#ffffff;stroke:#ffffff;stroke-width:0.457929"
           id="circle673" /><circle
           cx="81.730003"
           cy="258.42999"
           r="1.95"
           style="fill:#ffffff;stroke:#ffffff;stroke-width:0.457929"
           id="circle674" /><circle
           cx="125.9"
           cy="258.42999"
           r="1.95"
           style="fill:#ffffff;stroke:#ffffff;stroke-width:0.457929"
           id="circle675" /><circle
           cx="170.08"
           cy="258.42999"
           r="1.95"
           style="fill:#ffffff;stroke:#ffffff;stroke-width:0.457929"
           id="circle676" /><circle
           cx="214.25999"
           cy="258.42999"
           r="1.95"
           style="fill:#ffffff;stroke:#ffffff;stroke-width:0.457929"
           id="circle677" /><circle
           cx="258.42999"
           cy="258.42999"
           r="1.95"
           style="fill:#ffffff;stroke:#ffffff;stroke-width:0.457929"
           id="circle678" /><circle
           cx="302.60999"
           cy="258.42999"
           r="1.95"
           style="fill:#ffffff;stroke:#ffffff;stroke-width:0.457929"
           id="circle679" /><circle
           cx="15.46"
           cy="236.34"
           r="1.95"
           style="fill:#ffffff;stroke:#ffffff;stroke-width:0.457929"
           id="circle680" /><circle
           cx="59.639999"
           cy="236.34"
           r="1.95"
           style="fill:#ffffff;stroke:#ffffff;stroke-width:0.457929"
           id="circle681" /><circle
           cx="103.81"
           cy="236.34"
           r="1.95"
           style="fill:#ffffff;stroke:#ffffff;stroke-width:0.457929"
           id="circle682" /><circle
           cx="147.99001"
           cy="236.34"
           r="1.95"
           style="fill:#ffffff;stroke:#ffffff;stroke-width:0.457929"
           id="circle683" /><circle
           cx="192.17"
           cy="236.34"
           r="1.95"
           style="fill:#ffffff;stroke:#ffffff;stroke-width:0.457929"
           id="circle684" /><circle
           cx="236.34"
           cy="236.34"
           r="1.95"
           style="fill:#ffffff;stroke:#ffffff;stroke-width:0.457929"
           id="circle685" /><circle
           cx="280.51999"
           cy="236.34"
           r="1.95"
           style="fill:#ffffff;stroke:#ffffff;stroke-width:0.457929"
           id="circle686" /><circle
           cx="324.70001"
           cy="236.34"
           r="1.95"
           style="fill:#ffffff;stroke:#ffffff;stroke-width:0.457929"
           id="circle687" /><circle
           cx="37.549999"
           cy="214.25999"
           r="1.95"
           style="fill:#ffffff;stroke:#ffffff;stroke-width:0.457929"
           id="circle688" /><circle
           cx="81.730003"
           cy="214.25999"
           r="1.95"
           style="fill:#ffffff;stroke:#ffffff;stroke-width:0.457929"
           id="circle689" /><circle
           cx="125.9"
           cy="214.25999"
           r="1.95"
           style="fill:#ffffff;stroke:#ffffff;stroke-width:0.457929"
           id="circle690" /><circle
           cx="170.08"
           cy="214.25999"
           r="1.95"
           style="fill:#ffffff;stroke:#ffffff;stroke-width:0.457929"
           id="circle691" /><circle
           cx="214.25999"
           cy="214.25999"
           r="1.95"
           style="fill:#ffffff;stroke:#ffffff;stroke-width:0.457929"
           id="circle692" /><circle
           cx="258.42999"
           cy="214.25999"
           r="1.95"
           style="fill:#ffffff;stroke:#ffffff;stroke-width:0.457929"
           id="circle693" /><circle
           cx="302.60999"
           cy="214.25999"
           r="1.95"
           style="fill:#ffffff;stroke:#ffffff;stroke-width:0.457929"
           id="circle694" /><circle
           cx="15.46"
           cy="192.17"
           r="1.95"
           style="fill:#ffffff;stroke:#ffffff;stroke-width:0.457929"
           id="circle695" /><circle
           cx="59.639999"
           cy="192.17"
           r="1.95"
           style="fill:#ffffff;stroke:#ffffff;stroke-width:0.457929"
           id="circle696" /><circle
           cx="103.81"
           cy="192.17"
           r="1.95"
           style="fill:#ffffff;stroke:#ffffff;stroke-width:0.457929"
           id="circle697" /><circle
           cx="147.99001"
           cy="192.17"
           r="1.95"
           style="fill:#ffffff;stroke:#ffffff;stroke-width:0.457929"
           id="circle698" /><circle
           cx="192.17"
           cy="192.17"
           r="1.95"
           style="fill:#ffffff;stroke:#ffffff;stroke-width:0.457929"
           id="circle699" /><circle
           cx="236.34"
           cy="192.17"
           r="1.95"
           style="fill:#ffffff;stroke:#ffffff;stroke-width:0.457929"
           id="circle700" /><circle
           cx="280.51999"
           cy="192.17"
           r="1.95"
           style="fill:#ffffff;stroke:#ffffff;stroke-width:0.457929"
           id="circle701" /><circle
           cx="324.70001"
           cy="192.17"
           r="1.95"
           style="fill:#ffffff;stroke:#ffffff;stroke-width:0.457929"
           id="circle702" /><circle
           cx="37.549999"
           cy="170.08"
           r="1.95"
           style="fill:#ffffff;stroke:#ffffff;stroke-width:0.457929"
           id="circle703" /><circle
           cx="81.730003"
           cy="170.08"
           r="1.95"
           style="fill:#ffffff;stroke:#ffffff;stroke-width:0.457929"
           id="circle704" /><circle
           cx="125.9"
           cy="170.08"
           r="1.95"
           style="fill:#ffffff;stroke:#ffffff;stroke-width:0.457929"
           id="circle705" /><circle
           cx="170.08"
           cy="170.08"
           r="1.95"
           style="fill:#ffffff;stroke:#ffffff;stroke-width:0.457929"
           id="circle706" /><circle
           cx="214.25999"
           cy="170.08"
           r="1.95"
           style="fill:#ffffff;stroke:#ffffff;stroke-width:0.457929"
           id="circle707" /><circle
           cx="258.42999"
           cy="170.08"
           r="1.95"
           style="fill:#ffffff;stroke:#ffffff;stroke-width:0.457929"
           id="circle708" /><circle
           cx="302.60999"
           cy="170.08"
           r="1.95"
           style="fill:#ffffff;stroke:#ffffff;stroke-width:0.457929"
           id="circle709" /><circle
           cx="15.46"
           cy="147.99001"
           r="1.95"
           style="fill:#ffffff;stroke:#ffffff;stroke-width:0.457929"
           id="circle710" /><circle
           cx="59.639999"
           cy="147.99001"
           r="1.95"
           style="fill:#ffffff;stroke:#ffffff;stroke-width:0.457929"
           id="circle711" /><circle
           cx="103.81"
           cy="147.99001"
           r="1.95"
           style="fill:#ffffff;stroke:#ffffff;stroke-width:0.457929"
           id="circle712" /><circle
           cx="147.99001"
           cy="147.99001"
           r="1.95"
           style="fill:#ffffff;stroke:#ffffff;stroke-width:0.457929"
           id="circle713" /><circle
           cx="192.17"
           cy="147.99001"
           r="1.95"
           style="fill:#ffffff;stroke:#ffffff;stroke-width:0.457929"
           id="circle714" /><circle
           cx="236.34"
           cy="147.99001"
           r="1.95"
           style="fill:#ffffff;stroke:#ffffff;stroke-width:0.457929"
           id="circle715" /><circle
           cx="280.51999"
           cy="147.99001"
           r="1.95"
           style="fill:#ffffff;stroke:#ffffff;stroke-width:0.457929"
           id="circle716" /><circle
           cx="324.70001"
           cy="147.99001"
           r="1.95"
           style="fill:#ffffff;stroke:#ffffff;stroke-width:0.457929"
           id="circle717" /><circle
           cx="37.549999"
           cy="125.9"
           r="1.95"
           style="fill:#ffffff;stroke:#ffffff;stroke-width:0.457929"
           id="circle718" /><circle
           cx="81.730003"
           cy="125.9"
           r="1.95"
           style="fill:#ffffff;stroke:#ffffff;stroke-width:0.457929"
           id="circle719" /><circle
           cx="125.9"
           cy="125.9"
           r="1.95"
           style="fill:#ffffff;stroke:#ffffff;stroke-width:0.457929"
           id="circle720" /><circle
           cx="170.08"
           cy="125.9"
           r="1.95"
           style="fill:#ffffff;stroke:#ffffff;stroke-width:0.457929"
           id="circle721" /><circle
           cx="214.25999"
           cy="125.9"
           r="1.95"
           style="fill:#ffffff;stroke:#ffffff;stroke-width:0.457929"
           id="circle722" /><circle
           cx="258.42999"
           cy="125.9"
           r="1.95"
           style="fill:#ffffff;stroke:#ffffff;stroke-width:0.457929"
           id="circle723" /><circle
           cx="302.60999"
           cy="125.9"
           r="1.95"
           style="fill:#ffffff;stroke:#ffffff;stroke-width:0.457929"
           id="circle724" /><circle
           cx="15.46"
           cy="103.81"
           r="1.95"
           style="fill:#ffffff;stroke:#ffffff;stroke-width:0.457929"
           id="circle725" /><circle
           cx="59.639999"
           cy="103.81"
           r="1.95"
           style="fill:#ffffff;stroke:#ffffff;stroke-width:0.457929"
           id="circle726" /><circle
           cx="103.81"
           cy="103.81"
           r="1.95"
           style="fill:#ffffff;stroke:#ffffff;stroke-width:0.457929"
           id="circle727" /><circle
           cx="147.99001"
           cy="103.81"
           r="1.95"
           style="fill:#ffffff;stroke:#ffffff;stroke-width:0.457929"
           id="circle728" /><circle
           cx="192.17"
           cy="103.81"
           r="1.95"
           style="fill:#ffffff;stroke:#ffffff;stroke-width:0.457929"
           id="circle729" /><circle
           cx="236.34"
           cy="103.81"
           r="1.95"
           style="fill:#ffffff;stroke:#ffffff;stroke-width:0.457929"
           id="circle730" /><circle
           cx="280.51999"
           cy="103.81"
           r="1.95"
           style="fill:#ffffff;stroke:#ffffff;stroke-width:0.457929"
           id="circle731" /><circle
           cx="324.70001"
           cy="103.81"
           r="1.95"
           style="fill:#ffffff;stroke:#ffffff;stroke-width:0.457929"
           id="circle732" /><circle
           cx="37.549999"
           cy="81.730003"
           r="1.95"
           style="fill:#ffffff;stroke:#ffffff;stroke-width:0.457929"
           id="circle733" /><circle
           cx="81.730003"
           cy="81.730003"
           r="1.95"
           style="fill:#ffffff;stroke:#ffffff;stroke-width:0.457929"
           id="circle734" /><circle
           cx="125.9"
           cy="81.730003"
           r="1.95"
           style="fill:#ffffff;stroke:#ffffff;stroke-width:0.457929"
           id="circle735" /><circle
           cx="170.08"
           cy="81.730003"
           r="1.95"
           style="fill:#ffffff;stroke:#ffffff;stroke-width:0.457929"
           id="circle736" /><circle
           cx="214.25999"
           cy="81.730003"
           r="1.95"
           style="fill:#ffffff;stroke:#ffffff;stroke-width:0.457929"
           id="circle737" /><circle
           cx="258.42999"
           cy="81.730003"
           r="1.95"
           style="fill:#ffffff;stroke:#ffffff;stroke-width:0.457929"
           id="circle738" /><circle
           cx="302.60999"
           cy="81.730003"
           r="1.95"
           style="fill:#ffffff;stroke:#ffffff;stroke-width:0.457929"
           id="circle739" /><circle
           cx="15.46"
           cy="59.639999"
           r="1.95"
           style="fill:#ffffff;stroke:#ffffff;stroke-width:0.457929"
           id="circle740" /><circle
           cx="59.639999"
           cy="59.639999"
           r="1.95"
           style="fill:#ffffff;stroke:#ffffff;stroke-width:0.457929"
           id="circle741" /><circle
           cx="103.81"
           cy="59.639999"
           r="1.95"
           style="fill:#ffffff;stroke:#ffffff;stroke-width:0.457929"
           id="circle742" /><circle
           cx="147.99001"
           cy="59.639999"
           r="1.95"
           style="fill:#ffffff;stroke:#ffffff;stroke-width:0.457929"
           id="circle743" /><circle
           cx="192.17"
           cy="59.639999"
           r="1.95"
           style="fill:#ffffff;stroke:#ffffff;stroke-width:0.457929"
           id="circle744" /><circle
           cx="236.34"
           cy="59.639999"
           r="1.95"
           style="fill:#ffffff;stroke:#ffffff;stroke-width:0.457929"
           id="circle745" /><circle
           cx="280.51999"
           cy="59.639999"
           r="1.95"
           style="fill:#ffffff;stroke:#ffffff;stroke-width:0.457929"
           id="circle746" /><circle
           cx="324.70001"
           cy="59.639999"
           r="1.95"
           style="fill:#ffffff;stroke:#ffffff;stroke-width:0.457929"
           id="circle747" /><circle
           cx="37.549999"
           cy="37.549999"
           r="1.95"
           style="fill:#ffffff;stroke:#ffffff;stroke-width:0.457929"
           id="circle748" /><circle
           cx="81.730003"
           cy="37.549999"
           r="1.95"
           style="fill:#ffffff;stroke:#ffffff;stroke-width:0.457929"
           id="circle749" /><circle
           cx="125.9"
           cy="37.549999"
           r="1.95"
           style="fill:#ffffff;stroke:#ffffff;stroke-width:0.457929"
           id="circle750" /><circle
           cx="170.08"
           cy="37.549999"
           r="1.95"
           style="fill:#ffffff;stroke:#ffffff;stroke-width:0.457929"
           id="circle751" /><circle
           cx="214.25999"
           cy="37.549999"
           r="1.95"
           style="fill:#ffffff;stroke:#ffffff;stroke-width:0.457929"
           id="circle752" /><circle
           cx="258.42999"
           cy="37.549999"
           r="1.95"
           style="fill:#ffffff;stroke:#ffffff;stroke-width:0.457929"
           id="circle753" /><circle
           cx="302.60999"
           cy="37.549999"
           r="1.95"
           style="fill:#ffffff;stroke:#ffffff;stroke-width:0.457929"
           id="circle754" /><circle
           cx="15.46"
           cy="15.46"
           r="1.95"
           style="fill:#ffffff;stroke:#ffffff;stroke-width:0.457929"
           id="circle755" /><circle
           cx="59.639999"
           cy="15.46"
           r="1.95"
           style="fill:#ffffff;stroke:#ffffff;stroke-width:0.457929"
           id="circle756" /><circle
           cx="103.81"
           cy="15.46"
           r="1.95"
           style="fill:#ffffff;stroke:#ffffff;stroke-width:0.457929"
           id="circle757" /><circle
           cx="147.99001"
           cy="15.46"
           r="1.95"
           style="fill:#ffffff;stroke:#ffffff;stroke-width:0.457929"
           id="circle758" /><circle
           cx="192.17"
           cy="15.46"
           r="1.95"
           style="fill:#ffffff;stroke:#ffffff;stroke-width:0.457929"
           id="circle759" /><circle
           cx="236.34"
           cy="15.46"
           r="1.95"
           style="fill:#ffffff;stroke:#ffffff;stroke-width:0.457929"
           id="circle760" /><circle
           cx="280.51999"
           cy="15.46"
           r="1.95"
           style="fill:#ffffff;stroke:#ffffff;stroke-width:0.457929"
           id="circle761" /><circle
           cx="324.70001"
           cy="15.46"
           r="1.95"
           style="fill:#ffffff;stroke:#ffffff;stroke-width:0.457929"
           id="circle762" /></g></g><g
       id="g771"
       transform="matrix(0.26090184,0,0,0.26090184,567.00774,800.28882)"
       style="fill:#07005b;fill-opacity:0.748691;stroke:#ffffff;stroke-width:1.58455;stroke-opacity:0.890052">
	<path
   class="st0"
   d="M 510.168,392.022 464.574,334.696 V 93.611 c 0,-11.662 -9.458,-21.12 -21.12,-21.12 H 68.546 c -11.662,0 -21.115,9.458 -21.115,21.12 V 334.696 L 1.837,392.022 C 0.648,393.517 0,395.367 0,397.287 v 25.373 c 0,9.311 7.542,16.849 16.849,16.849 h 478.302 c 9.31,0 16.849,-7.538 16.849,-16.849 v -25.373 c 0,-1.92 -0.64,-3.77 -1.832,-5.265 z M 77.226,102.291 H 434.774 V 304.897 H 77.226 Z M 304.121,419.47 h -96.242 v -25.478 h 96.242 z"
   id="path768"
   style="fill:#07005b;fill-opacity:0.748691;stroke:#ffffff;stroke-width:1.58455;stroke-opacity:0.890052" />
	<path
   class="st0"
   d="m 204.404,167.431 c -0.117,0 -0.225,0.036 -0.31,0.096 l -57.525,39.266 c -0.152,0.112 -0.242,0.277 -0.242,0.467 v 10.556 c 0,0.189 0.09,0.363 0.242,0.458 l 57.525,39.266 c 0.086,0.069 0.194,0.104 0.31,0.104 0.087,0 0.177,-0.026 0.255,-0.069 0.181,-0.096 0.298,-0.286 0.298,-0.493 v -16.824 c 0,-0.172 -0.09,-0.354 -0.242,-0.458 l -39.94,-27.267 39.94,-27.258 c 0.152,-0.112 0.242,-0.277 0.242,-0.467 v -16.815 c 0,-0.207 -0.117,-0.406 -0.298,-0.492 -0.078,-0.052 -0.169,-0.07 -0.255,-0.07 z"
   id="path769"
   style="fill:#07005b;fill-opacity:0.748691;stroke:#ffffff;stroke-width:1.58455;stroke-opacity:0.890052" />
	<path
   class="st0"
   d="m 306.07,167.527 c -0.091,-0.06 -0.195,-0.096 -0.312,-0.096 -0.09,0 -0.177,0.018 -0.259,0.07 -0.177,0.086 -0.294,0.285 -0.294,0.492 v 16.824 c 0,0.182 0.091,0.355 0.242,0.458 l 39.94,27.258 -39.94,27.267 c -0.151,0.104 -0.242,0.285 -0.242,0.466 v 16.815 c 0,0.207 0.117,0.397 0.294,0.493 0.082,0.043 0.169,0.069 0.259,0.069 0.117,0 0.22,-0.034 0.312,-0.104 l 57.52,-39.266 c 0.164,-0.095 0.25,-0.268 0.25,-0.458 v -10.556 c 0,-0.19 -0.086,-0.355 -0.25,-0.467 z"
   id="path770"
   style="fill:#07005b;fill-opacity:0.748691;stroke:#ffffff;stroke-width:1.58455;stroke-opacity:0.890052" />
	<path
   class="st0"
   d="m 281.375,158.224 h -16.08 c -0.237,0 -0.449,0.147 -0.522,0.372 L 228.26,264.473 c -0.056,0.164 -0.026,0.354 0.074,0.492 0.109,0.147 0.277,0.242 0.454,0.242 h 16.08 c 0.238,0 0.45,-0.156 0.523,-0.38 l 36.508,-105.859 c 0.061,-0.172 0.03,-0.363 -0.069,-0.51 -0.109,-0.147 -0.277,-0.234 -0.455,-0.234 z"
   id="path771"
   style="fill:#07005b;fill-opacity:0.748691;stroke:#ffffff;stroke-width:1.58455;stroke-opacity:0.890052" />
</g><g
       style="fill:none;fill-opacity:1;stroke:#60a5ff;stroke-width:2.28494;stroke-dasharray:none;stroke-opacity:0.890052;paint-order:normal"
       id="g767"
       transform="matrix(3.6629294,0,0,3.6629294,651.35046,780.69458)"><path
         d="m 12,16 c -1.3807,0 -2.5,1.1193 -2.5,2.5 0,1.3807 1.1193,2.5 2.5,2.5 1.3807,0 2.5,-1.1193 2.5,-2.5 C 14.5,17.1193 13.3807,16 12,16 Z m 0,0 V 12 M 5.5,8 C 6.88071,8 8,6.88071 8,5.5 8,4.11929 6.88071,3 5.5,3 4.11929,3 3,4.11929 3,5.5 3,6.88071 4.11929,8 5.5,8 Z m 0,0 v 0.8 c 0,1.12011 0,1.6802 0.21799,2.108 0.19174,0.3763 0.4977,0.6823 0.87403,0.874 C 7.01984,12 7.57989,12 8.7,12 h 6.6 c 1.1201,0 1.6802,0 2.108,-0.218 0.3763,-0.1917 0.6823,-0.4977 0.874,-0.874 C 18.5,10.4802 18.5,9.92011 18.5,8.8 V 8 m 0,0 C 19.8807,8 21,6.88071 21,5.5 21,4.11929 19.8807,3 18.5,3 17.1193,3 16,4.11929 16,5.5 16,6.88071 17.1193,8 18.5,8 Z"
         stroke="#000000"
         stroke-width="4.81551"
         stroke-linecap="round"
         stroke-linejoin="round"
         id="path767"
         style="fill:none;fill-opacity:1;stroke:#60a5ff;stroke-width:2.28494;stroke-dasharray:none;stroke-opacity:0.890052;paint-order:normal" /></g></g><style
     type="text/css"
     id="style1-2">
	.st0{fill:#000000;}
</style></svg>
