<?xml version="1.0" encoding="UTF-8" standalone="no"?>
<!-- Created with Inkscape (http://www.inkscape.org/) -->

<svg
   width="213.16566"
   height="231.99054"
   viewBox="0 0 56.40008 61.38083"
   version="1.1"
   id="svg1"
   xmlns="http://www.w3.org/2000/svg"
   xmlns:svg="http://www.w3.org/2000/svg">
  <defs
     id="defs1" />
  <g
     id="layer1"
     style="display:inline"
     transform="translate(-6.1015321,-223.39364)">
    <path
       d="M 119.94531,117.95814 V 79.78108 h 19.66145 c 3.64583,0 6.43228,0.3125 8.35937,0.937499 1.92708,0.625 3.4809,1.788194 4.66145,3.489581 1.18055,1.684027 1.77083,3.741318 1.77083,6.171872 0,2.118054 -0.45139,3.94965 -1.35416,5.494788 -0.90278,1.527777 -2.1441,2.769095 -3.72396,3.723956 -1.00694,0.607634 -2.38715,1.111104 -4.14062,1.510414 1.40625,0.46875 2.43055,0.9375 3.07291,1.40625 0.43403,0.3125 1.05903,0.9809 1.875,2.00521 0.83333,1.02431 1.38889,1.81424 1.66667,2.36979 l 5.70312,11.0677 h -13.33332 l -6.30208,-11.66666 c -0.79861,-1.51041 -1.51042,-2.49132 -2.13542,-2.94271 -0.85069,-0.59027 -1.81423,-0.88541 -2.89062,-0.88541 h -1.04167 v 15.49478 z m 11.84895,-22.708319 h 4.97396 c 0.53819,0 1.57986,-0.173611 3.12499,-0.520833 0.78125,-0.15625 1.41494,-0.555555 1.90105,-1.197916 0.50347,-0.642361 0.7552,-1.380208 0.7552,-2.213541 0,-1.232638 -0.39062,-2.178818 -1.17187,-2.83854 -0.78125,-0.659721 -2.24827,-0.989582 -4.40104,-0.989582 h -5.18229 z"
       id="text92"
       style="font-weight:900;font-size:53.3333px;line-height:1.25;font-family:'Arial Black';-inkscape-font-specification:'Arial Black, Heavy';white-space:pre;stroke-width:0.170265"
       transform="matrix(1.5019171,0,0,1.6077939,-174.04638,95.122109)"
       aria-label="R" />
  </g>
</svg>
