<?xml version="1.0" encoding="UTF-8" standalone="no"?>
<!-- Created with Inkscape (http://www.inkscape.org/) -->

<svg
   width="194.83522"
   height="231.99054"
   viewBox="0 0 51.55015 61.38083"
   version="1.1"
   id="svg1"
   xmlns="http://www.w3.org/2000/svg"
   xmlns:svg="http://www.w3.org/2000/svg">
  <defs
     id="defs1" />
  <g
     id="layer1"
     style="display:inline"
     transform="translate(-5.8668576,-153.60692)">
    <path
       d="M 119.78906,118.18083 V 80.003772 h 16.22395 q 6.11979,0 8.8802,1.041666 2.78646,1.015624 4.45312,3.645831 1.66667,2.630207 1.66667,6.015621 0,4.296873 -2.52604,7.109371 -2.52604,2.786459 -7.55208,3.515619 2.5,1.45834 4.11458,3.20313 1.64063,1.74479 4.40104,6.19791 l 4.66146,7.44791 h -9.21875 l -5.57291,-8.30728 q -2.96875,-4.45313 -4.0625,-5.59896 -1.09375,-1.17187 -2.31771,-1.58854 -1.22395,-0.44271 -3.8802,-0.44271 h -1.5625 v 15.93749 z m 7.70833,-22.031235 h 5.70312 q 5.54687,0 6.92708,-0.468749 1.38021,-0.46875 2.16146,-1.614583 0.78125,-1.145832 0.78125,-2.864581 0,-1.927083 -1.04167,-3.098957 -1.01562,-1.197916 -2.89062,-1.510416 -0.9375,-0.130208 -5.625,-0.130208 h -6.01562 z"
       id="text90"
       style="font-weight:bold;font-size:53.3333px;line-height:1.25;font-family:Arial;-inkscape-font-specification:'Arial, Bold';white-space:pre;stroke-width:0.170265"
       transform="matrix(1.5019171,0,0,1.6077939,-174.04638,24.977335)"
       aria-label="R" />
  </g>
</svg>
