<?xml version="1.0" encoding="UTF-8" standalone="no"?>
<!-- Created with Inkscape (http://www.inkscape.org/) -->

<svg
   width="553.52069"
   height="222.54956"
   viewBox="0 0 146.45234 58.882905"
   version="1.1"
   id="svg1"
   xmlns="http://www.w3.org/2000/svg"
   xmlns:svg="http://www.w3.org/2000/svg">
  <defs
     id="defs1" />
  <g
     id="layer1"
     style="display:inline"
     transform="translate(-70.154651,-152.98018)">
    <path
       d="m 70.154647,189.4315 10.353037,-1.00654 c 0.623099,3.47497 1.881281,6.02728 3.774545,7.65693 1.917229,1.62965 4.493505,2.44447 7.72883,2.44447 3.427047,0 6.003323,-0.71896 7.728829,-2.15688 1.749472,-1.46189 2.624212,-3.16344 2.624212,-5.10463 0,-1.2462 -0.37146,-2.30068 -1.11439,-3.16343 -0.71897,-0.88671 -1.989132,-1.6536 -3.810496,-2.30067 -1.246199,-0.43138 -4.086095,-1.19827 -8.519687,-2.30068 -5.703757,-1.41395 -9.705972,-3.15144 -12.006647,-5.21246 -3.235325,-2.89981 -4.852987,-6.43471 -4.852987,-10.60468 0,-2.68412 0.754909,-5.1885 2.264727,-7.51314 1.533783,-2.34861 3.726614,-4.13403 6.578493,-5.35626 2.875843,-1.22223 6.338838,-1.83335 10.388985,-1.83335 6.614441,0 11.587252,1.44991 14.918442,4.34972 3.35515,2.89981 5.1166,6.77021 5.28436,11.61122 l -10.64062,0.46732 c -0.45535,-2.70809 -1.437927,-4.64928 -2.947742,-5.82358 -1.485853,-1.19827 -3.726614,-1.7974 -6.722284,-1.7974 -3.091532,0 -5.512034,0.63508 -7.261506,1.90524 -1.126372,0.81483 -1.689558,1.90525 -1.689558,3.27127 0,1.2462 0.527238,2.31266 1.581714,3.19938 1.342061,1.12637 4.60135,2.30068 9.777869,3.52291 5.176518,1.22223 8.998997,2.4924 11.467427,3.81049 2.4924,1.29413 4.43359,3.07955 5.82358,5.35626 1.41396,2.25275 2.12094,5.04471 2.12094,8.37589 0,3.01964 -0.83879,5.84755 -2.51637,8.48374 -1.67757,2.63619 -4.05014,4.60135 -7.11771,5.89548 -3.06757,1.27017 -6.890041,1.90525 -11.467425,1.90525 -6.662371,0 -11.778977,-1.53378 -15.349816,-4.60135 -3.570839,-3.09153 -5.703757,-7.58504 -6.398752,-13.48052 z m 94.219823,10.46088 c 2.61223,1.8693 5.45212,3.35515 8.51969,4.45756 l -3.91834,7.51314 c -1.60568,-0.47931 -3.17541,-1.13835 -4.70919,-1.97714 -0.33551,-0.16776 -2.6961,-1.72551 -7.08176,-4.67325 -3.45101,1.50982 -7.27349,2.26473 -11.46743,2.26473 -8.10029,0 -14.45112,-2.38455 -19.05247,-7.15366 -4.57738,-4.76911 -6.86607,-11.46743 -6.86607,-20.09496 0,-8.60357 2.30067,-15.2899 6.90202,-20.05901 4.60135,-4.79307 10.84433,-7.18961 18.72893,-7.18961 7.81271,0 14.00776,2.39654 18.58514,7.18961 4.57739,4.76911 6.86608,11.45544 6.86608,20.05901 0,4.55342 -0.63508,8.55564 -1.90525,12.00665 -0.95861,2.63619 -2.4924,5.1885 -4.60135,7.65693 z m -8.55563,-6.00332 c 1.36603,-1.60568 2.38455,-3.54687 3.05558,-5.82358 0.695,-2.27671 1.0425,-4.88894 1.0425,-7.83668 0,-6.0872 -1.34206,-10.62864 -4.02618,-13.62431 -2.68413,-3.01963 -6.19505,-4.52945 -10.53278,-4.52945 -4.33773,0 -7.86064,1.50982 -10.56873,4.52945 -2.68412,3.01964 -4.02618,7.56108 -4.02618,13.62431 0,6.1591 1.34206,10.77243 4.02618,13.84 2.70809,3.0436 6.12315,4.5654 10.2452,4.5654 1.53378,0 2.98368,-0.25164 4.34971,-0.75491 -2.15688,-1.41395 -4.34971,-2.51636 -6.57849,-3.30722 l 2.98368,-6.07522 c 3.49895,1.19827 6.84212,2.99568 10.02951,5.39221 z m 23.68976,12.68966 v -52.26846 h 10.64063 v 43.38929 h 26.45776 v 8.87917 z"
       id="text93"
       style="font-weight:bold;font-size:73.6216px;line-height:1.25;font-family:Arial;-inkscape-font-specification:'Arial, Bold';stroke-width:0.264583"
       aria-label="SQL" />
  </g>
</svg>
