<?xml version="1.0" encoding="UTF-8" standalone="no"?>
<!-- Created with Inkscape (http://www.inkscape.org/) -->

<svg
   width="601.07397"
   height="224.99506"
   viewBox="0 0 159.03415 59.529942"
   version="1.1"
   id="svg1"
   xmlns="http://www.w3.org/2000/svg"
   xmlns:svg="http://www.w3.org/2000/svg">
  <defs
     id="defs1" />
  <g
     id="layer1"
     style="display:inline"
     transform="translate(-81.308603,-225.83561)">
    <path
       d="m 81.308598,261.99934 15.493607,-0.9706 c 0.335515,2.51637 1.018528,4.4336 2.049039,5.75169 1.677576,2.13292 4.074116,3.19938 7.189606,3.19938 2.32464,0 4.11006,-0.53922 5.35626,-1.61766 1.27017,-1.10241 1.90525,-2.37258 1.90525,-3.8105 0,-1.36603 -0.59913,-2.58826 -1.7974,-3.6667 -1.19827,-1.07844 -3.97826,-2.09697 -8.33995,-3.05558 -7.141679,-1.60568 -12.234319,-3.7386 -15.27792,-6.39875 -3.067567,-2.66016 -4.60135,-6.05126 -4.60135,-10.1733 0,-2.70809 0.778874,-5.2604 2.336623,-7.65694 1.581714,-2.4205 3.942302,-4.31376 7.081765,-5.67979 3.163428,-1.38999 7.489172,-2.08498 12.977242,-2.08498 6.73427,0 11.86286,1.25818 15.38577,3.77454 3.54687,2.4924 5.65582,6.47065 6.32685,11.93475 l -15.34981,0.8987 c -0.40741,-2.37257 -1.27017,-4.09807 -2.58826,-5.17651 -1.29413,-1.07845 -3.09154,-1.61767 -5.39221,-1.61767 -1.89326,0 -3.3192,0.40741 -4.277817,1.22224 -0.958615,0.79085 -1.437922,1.76145 -1.437922,2.91179 0,0.83879 0.395429,1.5937 1.186286,2.26473 0.766893,0.69499 2.588253,1.34206 5.464103,1.94119 7.11771,1.53379 12.21035,3.09154 15.27792,4.67325 3.09153,1.55775 5.33229,3.49894 6.72228,5.82358 1.41396,2.32464 2.12094,4.92488 2.12094,7.80073 0,3.37911 -0.93465,6.49461 -2.80395,9.34649 -1.8693,2.85187 -4.48152,5.02074 -7.83667,6.50659 -3.35515,1.46189 -7.58504,2.19283 -12.68966,2.19283 -8.963048,0 -15.170078,-1.7255 -18.621091,-5.17651 -3.451012,-3.45101 -5.404189,-7.83668 -5.859531,-13.15699 z m 102.811412,9.74192 c 2.03705,1.41396 3.36713,2.30068 3.99023,2.66016 0.93465,0.52723 2.19284,1.13835 3.77455,1.83335 l -4.52946,9.1308 c -2.27671,-1.10241 -4.52945,-2.4205 -6.75823,-3.95428 -2.22878,-1.50982 -3.78653,-2.64818 -4.67325,-3.41507 -3.5948,1.55775 -8.10029,2.33662 -13.51646,2.33662 -8.00443,0 -14.31931,-2.08499 -18.94462,-6.25496 -5.46411,-4.93686 -8.19616,-11.87483 -8.19616,-20.81391 0,-8.67547 2.38456,-15.40974 7.15367,-20.20281 4.79307,-4.81703 11.47941,-7.22555 20.05901,-7.22555 8.74735,0 15.4936,2.3486 20.23875,7.04581 4.76911,4.69721 7.15366,11.4195 7.15366,20.16686 0,7.78874 -1.91723,14.01973 -5.75169,18.69298 z m -12.47397,-8.33995 c 1.29413,-2.32464 1.94119,-5.79962 1.94119,-10.42493 0,-5.32031 -0.99456,-9.11882 -2.98369,-11.39553 -1.96516,-2.27671 -4.68523,-3.41506 -8.1602,-3.41506 -3.23533,0 -5.85953,1.16232 -7.87262,3.48696 -2.01309,2.32464 -3.01964,5.95539 -3.01964,10.89225 0,5.75169 0.98258,9.78986 2.94774,12.1145 1.96516,2.32464 4.66126,3.48696 8.08831,3.48696 1.10241,0 2.1449,-0.10785 3.12748,-0.32354 -1.36603,-1.31809 -3.52291,-2.56429 -6.47065,-3.73859 l 2.55231,-5.85953 c 1.43793,0.26361 2.55232,0.58714 3.34317,0.97059 0.81482,0.38345 2.38455,1.38999 4.70919,3.01964 0.55121,0.38345 1.15034,0.77887 1.79741,1.18628 z m 26.99698,-36.667 h 16.28446 v 39.72259 h 25.41527 v 12.97724 h -41.69973 z"
       id="text91"
       style="font-weight:900;font-size:73.6216px;line-height:1.25;font-family:'Arial Black';-inkscape-font-specification:'Arial Black, Heavy';stroke-width:0.264583"
       aria-label="SQL" />
  </g>
</svg>
