<?xml version="1.0" encoding="UTF-8" standalone="no"?>
<!-- Created with Inkscape (http://www.inkscape.org/) -->

<svg
   width="689.35553"
   height="689.35547"
   viewBox="0 0 182.39198 182.39197"
   version="1.1"
   id="svg1"
   xml:space="preserve"
   xmlns="http://www.w3.org/2000/svg"
   xmlns:svg="http://www.w3.org/2000/svg"><defs
     id="defs1"><linearGradient
       id="swatch776"><stop
         style="stop-color:#07005b;stop-opacity:1;"
         offset="0"
         id="stop776" /></linearGradient><style
       type="text/css"
       id="style1"><![CDATA[
    .svglite line, .svglite polyline, .svglite polygon, .svglite path, .svglite rect, .svglite circle {
      fill: none;
      stroke: #000000;
      stroke-linecap: round;
      stroke-linejoin: round;
      stroke-miterlimit: 10.00;
    }
    .svglite text {
      white-space: pre;
    }
  ]]></style><style
       type="text/css"
       id="style1-3"><![CDATA[
    .svglite line, .svglite polyline, .svglite polygon, .svglite path, .svglite rect, .svglite circle {
      fill: none;
      stroke: #000000;
      stroke-linecap: round;
      stroke-linejoin: round;
      stroke-miterlimit: 10.00;
    }
    .svglite text {
      white-space: pre;
    }
  ]]></style><style
       type="text/css"
       id="style1-8"><![CDATA[
    .svglite line, .svglite polyline, .svglite polygon, .svglite path, .svglite rect, .svglite circle {
      fill: none;
      stroke: #000000;
      stroke-linecap: round;
      stroke-linejoin: round;
      stroke-miterlimit: 10.00;
    }
    .svglite text {
      white-space: pre;
    }
  ]]></style><style
       type="text/css"
       id="style1-7"><![CDATA[
    .svglite line, .svglite polyline, .svglite polygon, .svglite path, .svglite rect, .svglite circle {
      fill: none;
      stroke: #000000;
      stroke-linecap: round;
      stroke-linejoin: round;
      stroke-miterlimit: 10.00;
    }
    .svglite text {
      white-space: pre;
    }
  ]]></style><clipPath
       id="cpMC4wMHwzNDAuMTZ8MC4wMHwzNDAuMTY=-8"><rect
         x="0"
         y="0"
         width="340.16"
         height="340.16"
         id="rect2-0" /></clipPath><style
       type="text/css"
       id="style1-1"><![CDATA[
    .svglite line, .svglite polyline, .svglite polygon, .svglite path, .svglite rect, .svglite circle {
      fill: none;
      stroke: #000000;
      stroke-linecap: round;
      stroke-linejoin: round;
      stroke-miterlimit: 10.00;
    }
    .svglite text {
      white-space: pre;
    }
  ]]></style><style
       type="text/css"
       id="style1-23"><![CDATA[
    .svglite line, .svglite polyline, .svglite polygon, .svglite path, .svglite rect, .svglite circle {
      fill: none;
      stroke: #000000;
      stroke-linecap: round;
      stroke-linejoin: round;
      stroke-miterlimit: 10.00;
    }
    .svglite text {
      white-space: pre;
    }
  ]]></style></defs><g
     id="layer4"
     transform="translate(-333.19104,-317.74312)"><g
       id="g1134"
       transform="matrix(0.53619468,0,0,0.53619468,333.19107,317.74312)"
       style="fill:#00ffff;stroke-width:1.73621"><rect
         width="100%"
         height="100%"
         style="fill:#ffffff;stroke:none;stroke-width:1.73621"
         id="rect1020"
         x="0"
         y="0" /><g
         clip-path="url(#cpMC4wMHwzNDAuMTZ8MC4wMHwzNDAuMTY=-8)"
         id="g1133"
         style="stroke-width:1.73621"><rect
           x="0"
           y="5.6999998e-14"
           width="340.16"
           height="340.16"
           style="fill:#eac85d;stroke:#eac85d;stroke-width:0.493446"
           id="rect1021" /><circle
           cx="15.46"
           cy="324.70001"
           r="1.95"
           style="fill:#ffffff;stroke:#ffffff;stroke-width:0.467129"
           id="circle1021" /><circle
           cx="59.639999"
           cy="324.70001"
           r="1.95"
           style="fill:#ffffff;stroke:#ffffff;stroke-width:0.467129"
           id="circle1022" /><circle
           cx="103.81"
           cy="324.70001"
           r="1.95"
           style="fill:#ffffff;stroke:#ffffff;stroke-width:0.467129"
           id="circle1023" /><circle
           cx="147.99001"
           cy="324.70001"
           r="1.95"
           style="fill:#ffffff;stroke:#ffffff;stroke-width:0.467129"
           id="circle1024" /><circle
           cx="192.17"
           cy="324.70001"
           r="1.95"
           style="fill:#ffffff;stroke:#ffffff;stroke-width:0.467129"
           id="circle1025" /><circle
           cx="236.34"
           cy="324.70001"
           r="1.95"
           style="fill:#ffffff;stroke:#ffffff;stroke-width:0.467129"
           id="circle1026" /><circle
           cx="280.51999"
           cy="324.70001"
           r="1.95"
           style="fill:#ffffff;stroke:#ffffff;stroke-width:0.467129"
           id="circle1027" /><circle
           cx="324.70001"
           cy="324.70001"
           r="1.95"
           style="fill:#ffffff;stroke:#ffffff;stroke-width:0.467129"
           id="circle1028" /><circle
           cx="37.549999"
           cy="302.60999"
           r="1.95"
           style="fill:#ffffff;stroke:#ffffff;stroke-width:0.467129"
           id="circle1029" /><circle
           cx="81.730003"
           cy="302.60999"
           r="1.95"
           style="fill:#ffffff;stroke:#ffffff;stroke-width:0.467129"
           id="circle1030" /><circle
           cx="125.9"
           cy="302.60999"
           r="1.95"
           style="fill:#ffffff;stroke:#ffffff;stroke-width:0.467129"
           id="circle1031" /><circle
           cx="170.08"
           cy="302.60999"
           r="1.95"
           style="fill:#ffffff;stroke:#ffffff;stroke-width:0.467129"
           id="circle1032" /><circle
           cx="214.25999"
           cy="302.60999"
           r="1.95"
           style="fill:#ffffff;stroke:#ffffff;stroke-width:0.467129"
           id="circle1033" /><circle
           cx="258.42999"
           cy="302.60999"
           r="1.95"
           style="fill:#ffffff;stroke:#ffffff;stroke-width:0.467129"
           id="circle1034" /><circle
           cx="302.60999"
           cy="302.60999"
           r="1.95"
           style="fill:#ffffff;stroke:#ffffff;stroke-width:0.467129"
           id="circle1035" /><circle
           cx="15.46"
           cy="280.51999"
           r="1.95"
           style="fill:#ffffff;stroke:#ffffff;stroke-width:0.467129"
           id="circle1036" /><circle
           cx="59.639999"
           cy="280.51999"
           r="1.95"
           style="fill:#ffffff;stroke:#ffffff;stroke-width:0.467129"
           id="circle1037" /><circle
           cx="103.81"
           cy="280.51999"
           r="1.95"
           style="fill:#ffffff;stroke:#ffffff;stroke-width:0.467129"
           id="circle1038" /><circle
           cx="147.99001"
           cy="280.51999"
           r="1.95"
           style="fill:#ffffff;stroke:#ffffff;stroke-width:0.467129"
           id="circle1039" /><circle
           cx="192.17"
           cy="280.51999"
           r="1.95"
           style="fill:#ffffff;stroke:#ffffff;stroke-width:0.467129"
           id="circle1040" /><circle
           cx="236.34"
           cy="280.51999"
           r="1.95"
           style="fill:#ffffff;stroke:#ffffff;stroke-width:0.467129"
           id="circle1041" /><circle
           cx="280.51999"
           cy="280.51999"
           r="1.95"
           style="fill:#ffffff;stroke:#ffffff;stroke-width:0.467129"
           id="circle1042" /><circle
           cx="324.70001"
           cy="280.51999"
           r="1.95"
           style="fill:#ffffff;stroke:#ffffff;stroke-width:0.467129"
           id="circle1043" /><circle
           cx="37.549999"
           cy="258.42999"
           r="1.95"
           style="fill:#ffffff;stroke:#ffffff;stroke-width:0.467129"
           id="circle1044" /><circle
           cx="81.730003"
           cy="258.42999"
           r="1.95"
           style="fill:#ffffff;stroke:#ffffff;stroke-width:0.467129"
           id="circle1045" /><circle
           cx="125.9"
           cy="258.42999"
           r="1.95"
           style="fill:#ffffff;stroke:#ffffff;stroke-width:0.467129"
           id="circle1046" /><circle
           cx="170.08"
           cy="258.42999"
           r="1.95"
           style="fill:#ffffff;stroke:#ffffff;stroke-width:0.467129"
           id="circle1047" /><circle
           cx="214.25999"
           cy="258.42999"
           r="1.95"
           style="fill:#ffffff;stroke:#ffffff;stroke-width:0.467129"
           id="circle1048" /><circle
           cx="258.42999"
           cy="258.42999"
           r="1.95"
           style="fill:#ffffff;stroke:#ffffff;stroke-width:0.467129"
           id="circle1049" /><circle
           cx="302.60999"
           cy="258.42999"
           r="1.95"
           style="fill:#ffffff;stroke:#ffffff;stroke-width:0.467129"
           id="circle1050" /><circle
           cx="15.46"
           cy="236.34"
           r="1.95"
           style="fill:#ffffff;stroke:#ffffff;stroke-width:0.467129"
           id="circle1051" /><circle
           cx="59.639999"
           cy="236.34"
           r="1.95"
           style="fill:#ffffff;stroke:#ffffff;stroke-width:0.467129"
           id="circle1052" /><circle
           cx="103.81"
           cy="236.34"
           r="1.95"
           style="fill:#ffffff;stroke:#ffffff;stroke-width:0.467129"
           id="circle1053" /><circle
           cx="147.99001"
           cy="236.34"
           r="1.95"
           style="fill:#ffffff;stroke:#ffffff;stroke-width:0.467129"
           id="circle1054" /><circle
           cx="192.17"
           cy="236.34"
           r="1.95"
           style="fill:#ffffff;stroke:#ffffff;stroke-width:0.467129"
           id="circle1055" /><circle
           cx="236.34"
           cy="236.34"
           r="1.95"
           style="fill:#ffffff;stroke:#ffffff;stroke-width:0.467129"
           id="circle1056" /><circle
           cx="280.51999"
           cy="236.34"
           r="1.95"
           style="fill:#ffffff;stroke:#ffffff;stroke-width:0.467129"
           id="circle1057" /><circle
           cx="324.70001"
           cy="236.34"
           r="1.95"
           style="fill:#ffffff;stroke:#ffffff;stroke-width:0.467129"
           id="circle1058" /><circle
           cx="37.549999"
           cy="214.25999"
           r="1.95"
           style="fill:#ffffff;stroke:#ffffff;stroke-width:0.467129"
           id="circle1059" /><circle
           cx="81.730003"
           cy="214.25999"
           r="1.95"
           style="fill:#ffffff;stroke:#ffffff;stroke-width:0.467129"
           id="circle1060" /><circle
           cx="125.9"
           cy="214.25999"
           r="1.95"
           style="fill:#ffffff;stroke:#ffffff;stroke-width:0.467129"
           id="circle1061" /><circle
           cx="170.08"
           cy="214.25999"
           r="1.95"
           style="fill:#ffffff;stroke:#ffffff;stroke-width:0.467129"
           id="circle1062" /><circle
           cx="214.25999"
           cy="214.25999"
           r="1.95"
           style="fill:#ffffff;stroke:#ffffff;stroke-width:0.467129"
           id="circle1063" /><circle
           cx="258.42999"
           cy="214.25999"
           r="1.95"
           style="fill:#ffffff;stroke:#ffffff;stroke-width:0.467129"
           id="circle1064" /><circle
           cx="302.60999"
           cy="214.25999"
           r="1.95"
           style="fill:#ffffff;stroke:#ffffff;stroke-width:0.467129"
           id="circle1065" /><circle
           cx="15.46"
           cy="192.17"
           r="1.95"
           style="fill:#ffffff;stroke:#ffffff;stroke-width:0.467129"
           id="circle1066" /><circle
           cx="59.639999"
           cy="192.17"
           r="1.95"
           style="fill:#ffffff;stroke:#ffffff;stroke-width:0.467129"
           id="circle1067" /><circle
           cx="103.81"
           cy="192.17"
           r="1.95"
           style="fill:#ffffff;stroke:#ffffff;stroke-width:0.467129"
           id="circle1068" /><circle
           cx="147.99001"
           cy="192.17"
           r="1.95"
           style="fill:#ffffff;stroke:#ffffff;stroke-width:0.467129"
           id="circle1069" /><circle
           cx="192.17"
           cy="192.17"
           r="1.95"
           style="fill:#ffffff;stroke:#ffffff;stroke-width:0.467129"
           id="circle1070" /><circle
           cx="236.34"
           cy="192.17"
           r="1.95"
           style="fill:#ffffff;stroke:#ffffff;stroke-width:0.467129"
           id="circle1071" /><circle
           cx="280.51999"
           cy="192.17"
           r="1.95"
           style="fill:#ffffff;stroke:#ffffff;stroke-width:0.467129"
           id="circle1072" /><circle
           cx="324.70001"
           cy="192.17"
           r="1.95"
           style="fill:#ffffff;stroke:#ffffff;stroke-width:0.467129"
           id="circle1073" /><circle
           cx="37.549999"
           cy="170.08"
           r="1.95"
           style="fill:#ffffff;stroke:#ffffff;stroke-width:0.467129"
           id="circle1074" /><circle
           cx="81.730003"
           cy="170.08"
           r="1.95"
           style="fill:#ffffff;stroke:#ffffff;stroke-width:0.467129"
           id="circle1075" /><circle
           cx="125.9"
           cy="170.08"
           r="1.95"
           style="fill:#ffffff;stroke:#ffffff;stroke-width:0.467129"
           id="circle1076" /><circle
           cx="170.08"
           cy="170.08"
           r="1.95"
           style="fill:#ffffff;stroke:#ffffff;stroke-width:0.467129"
           id="circle1077" /><circle
           cx="214.25999"
           cy="170.08"
           r="1.95"
           style="fill:#ffffff;stroke:#ffffff;stroke-width:0.467129"
           id="circle1078" /><circle
           cx="258.42999"
           cy="170.08"
           r="1.95"
           style="fill:#ffffff;stroke:#ffffff;stroke-width:0.467129"
           id="circle1079" /><circle
           cx="302.60999"
           cy="170.08"
           r="1.95"
           style="fill:#ffffff;stroke:#ffffff;stroke-width:0.467129"
           id="circle1080" /><circle
           cx="15.46"
           cy="147.99001"
           r="1.95"
           style="fill:#ffffff;stroke:#ffffff;stroke-width:0.467129"
           id="circle1081" /><circle
           cx="59.639999"
           cy="147.99001"
           r="1.95"
           style="fill:#ffffff;stroke:#ffffff;stroke-width:0.467129"
           id="circle1082" /><circle
           cx="103.81"
           cy="147.99001"
           r="1.95"
           style="fill:#ffffff;stroke:#ffffff;stroke-width:0.467129"
           id="circle1083" /><circle
           cx="147.99001"
           cy="147.99001"
           r="1.95"
           style="fill:#ffffff;stroke:#ffffff;stroke-width:0.467129"
           id="circle1084" /><circle
           cx="192.17"
           cy="147.99001"
           r="1.95"
           style="fill:#ffffff;stroke:#ffffff;stroke-width:0.467129"
           id="circle1085" /><circle
           cx="236.34"
           cy="147.99001"
           r="1.95"
           style="fill:#ffffff;stroke:#ffffff;stroke-width:0.467129"
           id="circle1086" /><circle
           cx="280.51999"
           cy="147.99001"
           r="1.95"
           style="fill:#ffffff;stroke:#ffffff;stroke-width:0.467129"
           id="circle1087" /><circle
           cx="324.70001"
           cy="147.99001"
           r="1.95"
           style="fill:#ffffff;stroke:#ffffff;stroke-width:0.467129"
           id="circle1088" /><circle
           cx="37.549999"
           cy="125.9"
           r="1.95"
           style="fill:#ffffff;stroke:#ffffff;stroke-width:0.467129"
           id="circle1089" /><circle
           cx="81.730003"
           cy="125.9"
           r="1.95"
           style="fill:#ffffff;stroke:#ffffff;stroke-width:0.467129"
           id="circle1090" /><circle
           cx="125.9"
           cy="125.9"
           r="1.95"
           style="fill:#ffffff;stroke:#ffffff;stroke-width:0.467129"
           id="circle1091" /><circle
           cx="170.08"
           cy="125.9"
           r="1.95"
           style="fill:#ffffff;stroke:#ffffff;stroke-width:0.467129"
           id="circle1092" /><circle
           cx="214.25999"
           cy="125.9"
           r="1.95"
           style="fill:#ffffff;stroke:#ffffff;stroke-width:0.467129"
           id="circle1093" /><circle
           cx="258.42999"
           cy="125.9"
           r="1.95"
           style="fill:#ffffff;stroke:#ffffff;stroke-width:0.467129"
           id="circle1094" /><circle
           cx="302.60999"
           cy="125.9"
           r="1.95"
           style="fill:#ffffff;stroke:#ffffff;stroke-width:0.467129"
           id="circle1095" /><circle
           cx="15.46"
           cy="103.81"
           r="1.95"
           style="fill:#ffffff;stroke:#ffffff;stroke-width:0.467129"
           id="circle1096" /><circle
           cx="59.639999"
           cy="103.81"
           r="1.95"
           style="fill:#ffffff;stroke:#ffffff;stroke-width:0.467129"
           id="circle1097" /><circle
           cx="103.81"
           cy="103.81"
           r="1.95"
           style="fill:#ffffff;stroke:#ffffff;stroke-width:0.467129"
           id="circle1098" /><circle
           cx="147.99001"
           cy="103.81"
           r="1.95"
           style="fill:#ffffff;stroke:#ffffff;stroke-width:0.467129"
           id="circle1099" /><circle
           cx="192.17"
           cy="103.81"
           r="1.95"
           style="fill:#ffffff;stroke:#ffffff;stroke-width:0.467129"
           id="circle1100" /><circle
           cx="236.34"
           cy="103.81"
           r="1.95"
           style="fill:#ffffff;stroke:#ffffff;stroke-width:0.467129"
           id="circle1101" /><circle
           cx="280.51999"
           cy="103.81"
           r="1.95"
           style="fill:#ffffff;stroke:#ffffff;stroke-width:0.467129"
           id="circle1102" /><circle
           cx="324.70001"
           cy="103.81"
           r="1.95"
           style="fill:#ffffff;stroke:#ffffff;stroke-width:0.467129"
           id="circle1103" /><circle
           cx="37.549999"
           cy="81.730003"
           r="1.95"
           style="fill:#ffffff;stroke:#ffffff;stroke-width:0.467129"
           id="circle1104" /><circle
           cx="81.730003"
           cy="81.730003"
           r="1.95"
           style="fill:#ffffff;stroke:#ffffff;stroke-width:0.467129"
           id="circle1105" /><circle
           cx="125.9"
           cy="81.730003"
           r="1.95"
           style="fill:#ffffff;stroke:#ffffff;stroke-width:0.467129"
           id="circle1106" /><circle
           cx="170.08"
           cy="81.730003"
           r="1.95"
           style="fill:#ffffff;stroke:#ffffff;stroke-width:0.467129"
           id="circle1107" /><circle
           cx="214.25999"
           cy="81.730003"
           r="1.95"
           style="fill:#ffffff;stroke:#ffffff;stroke-width:0.467129"
           id="circle1108" /><circle
           cx="258.42999"
           cy="81.730003"
           r="1.95"
           style="fill:#ffffff;stroke:#ffffff;stroke-width:0.467129"
           id="circle1109" /><circle
           cx="302.60999"
           cy="81.730003"
           r="1.95"
           style="fill:#ffffff;stroke:#ffffff;stroke-width:0.467129"
           id="circle1110" /><circle
           cx="15.46"
           cy="59.639999"
           r="1.95"
           style="fill:#ffffff;stroke:#ffffff;stroke-width:0.467129"
           id="circle1111" /><circle
           cx="59.639999"
           cy="59.639999"
           r="1.95"
           style="fill:#ffffff;stroke:#ffffff;stroke-width:0.467129"
           id="circle1112" /><circle
           cx="103.81"
           cy="59.639999"
           r="1.95"
           style="fill:#ffffff;stroke:#ffffff;stroke-width:0.467129"
           id="circle1113" /><circle
           cx="147.99001"
           cy="59.639999"
           r="1.95"
           style="fill:#ffffff;stroke:#ffffff;stroke-width:0.467129"
           id="circle1114" /><circle
           cx="192.17"
           cy="59.639999"
           r="1.95"
           style="fill:#ffffff;stroke:#ffffff;stroke-width:0.467129"
           id="circle1115" /><circle
           cx="236.34"
           cy="59.639999"
           r="1.95"
           style="fill:#ffffff;stroke:#ffffff;stroke-width:0.467129"
           id="circle1116" /><circle
           cx="280.51999"
           cy="59.639999"
           r="1.95"
           style="fill:#ffffff;stroke:#ffffff;stroke-width:0.467129"
           id="circle1117" /><circle
           cx="324.70001"
           cy="59.639999"
           r="1.95"
           style="fill:#ffffff;stroke:#ffffff;stroke-width:0.467129"
           id="circle1118" /><circle
           cx="37.549999"
           cy="37.549999"
           r="1.95"
           style="fill:#ffffff;stroke:#ffffff;stroke-width:0.467129"
           id="circle1119" /><circle
           cx="81.730003"
           cy="37.549999"
           r="1.95"
           style="fill:#ffffff;stroke:#ffffff;stroke-width:0.467129"
           id="circle1120" /><circle
           cx="125.9"
           cy="37.549999"
           r="1.95"
           style="fill:#ffffff;stroke:#ffffff;stroke-width:0.467129"
           id="circle1121" /><circle
           cx="170.08"
           cy="37.549999"
           r="1.95"
           style="fill:#ffffff;stroke:#ffffff;stroke-width:0.467129"
           id="circle1122" /><circle
           cx="214.25999"
           cy="37.549999"
           r="1.95"
           style="fill:#ffffff;stroke:#ffffff;stroke-width:0.467129"
           id="circle1123" /><circle
           cx="258.42999"
           cy="37.549999"
           r="1.95"
           style="fill:#ffffff;stroke:#ffffff;stroke-width:0.467129"
           id="circle1124" /><circle
           cx="302.60999"
           cy="37.549999"
           r="1.95"
           style="fill:#ffffff;stroke:#ffffff;stroke-width:0.467129"
           id="circle1125" /><circle
           cx="15.46"
           cy="15.46"
           r="1.95"
           style="fill:#ffffff;stroke:#ffffff;stroke-width:0.467129"
           id="circle1126" /><circle
           cx="59.639999"
           cy="15.46"
           r="1.95"
           style="fill:#ffffff;stroke:#ffffff;stroke-width:0.467129"
           id="circle1127" /><circle
           cx="103.81"
           cy="15.46"
           r="1.95"
           style="fill:#ffffff;stroke:#ffffff;stroke-width:0.467129"
           id="circle1128" /><circle
           cx="147.99001"
           cy="15.46"
           r="1.95"
           style="fill:#ffffff;stroke:#ffffff;stroke-width:0.467129"
           id="circle1129" /><circle
           cx="192.17"
           cy="15.46"
           r="1.95"
           style="fill:#ffffff;stroke:#ffffff;stroke-width:0.467129"
           id="circle1130" /><circle
           cx="236.34"
           cy="15.46"
           r="1.95"
           style="fill:#ffffff;stroke:#ffffff;stroke-width:0.467129"
           id="circle1131" /><circle
           cx="280.51999"
           cy="15.46"
           r="1.95"
           style="fill:#ffffff;stroke:#ffffff;stroke-width:0.467129"
           id="circle1132" /><circle
           cx="324.70001"
           cy="15.46"
           r="1.95"
           style="fill:#ffffff;stroke:#ffffff;stroke-width:0.467129"
           id="circle1133" /></g></g><path
       style="fill:#b78611;fill-opacity:0.782723;stroke:none;stroke-width:8.45094;stroke-linecap:butt;stroke-dasharray:none;stroke-dashoffset:0;stroke-opacity:0.918848;paint-order:normal"
       id="path1134"
       d="m 469.60316,307.718 c -0.75584,0.58616 -79.22675,-52.17782 -80.18277,-52.14787 -0.95602,0.0299 -75.97089,57.60156 -76.76192,57.06385 -0.79104,-0.53771 25.14164,-91.47295 24.81774,-92.37292 -0.32391,-0.89997 -78.25864,-54.45275 -77.99169,-55.37123 0.26695,-0.91848 94.76514,-4.35557 95.52097,-4.94173 0.75583,-0.58616 27.60439,-91.255205 28.56041,-91.28515 0.95602,-0.02994 33.42643,88.78106 34.21747,89.31876 0.79103,0.53771 95.31908,-1.94607 95.64299,-1.0461 0.3239,0.89998 -74.10647,59.22528 -74.37341,60.14376 -0.26695,0.91849 31.30604,90.05247 30.55021,90.63863 z"
       transform="matrix(0.14060713,0.00410765,-0.00421977,0.13687118,322.60926,422.21953)" /><path
       style="fill:#b78611;fill-opacity:0.782723;stroke:none;stroke-width:8.45094;stroke-linecap:butt;stroke-dasharray:none;stroke-dashoffset:0;stroke-opacity:0.918848;paint-order:normal"
       id="path1135"
       d="m 469.60316,307.718 c -0.75584,0.58616 -79.22675,-52.17782 -80.18277,-52.14787 -0.95602,0.0299 -75.97089,57.60156 -76.76192,57.06385 -0.79104,-0.53771 25.14164,-91.47295 24.81774,-92.37292 -0.32391,-0.89997 -78.25864,-54.45275 -77.99169,-55.37123 0.26695,-0.91848 94.76514,-4.35557 95.52097,-4.94173 0.75583,-0.58616 27.60439,-91.255205 28.56041,-91.28515 0.95602,-0.02994 33.42643,88.78106 34.21747,89.31876 0.79103,0.53771 95.31908,-1.94607 95.64299,-1.0461 0.3239,0.89998 -74.10647,59.22528 -74.37341,60.14376 -0.26695,0.91849 31.30604,90.05247 30.55021,90.63863 z"
       transform="matrix(0.14060713,0.00410765,-0.00421977,0.13687118,418.04578,422.21953)" /><path
       style="fill:#b78611;fill-opacity:0.782723;stroke:none;stroke-width:8.45094;stroke-linecap:butt;stroke-dasharray:none;stroke-dashoffset:0;stroke-opacity:0.918848;paint-order:normal"
       id="path1136"
       d="m 469.60316,307.718 c -0.75584,0.58616 -79.22675,-52.17782 -80.18277,-52.14787 -0.95602,0.0299 -75.97089,57.60156 -76.76192,57.06385 -0.79104,-0.53771 25.14164,-91.47295 24.81774,-92.37292 -0.32391,-0.89997 -78.25864,-54.45275 -77.99169,-55.37123 0.26695,-0.91848 94.76514,-4.35557 95.52097,-4.94173 0.75583,-0.58616 27.60439,-91.255205 28.56041,-91.28515 0.95602,-0.02994 33.42643,88.78106 34.21747,89.31876 0.79103,0.53771 95.31908,-1.94607 95.64299,-1.0461 0.3239,0.89998 -74.10647,59.22528 -74.37341,60.14376 -0.26695,0.91849 31.30604,90.05247 30.55021,90.63863 z"
       transform="matrix(0.14060713,0.00410765,-0.00421977,0.13687118,370.69881,441.68)" /><g
       id="g1144"
       style="fill:#e58f10;fill-opacity:0;stroke:#732000;stroke-opacity:0.850785"
       transform="translate(-1.5875181,-1.1567215)"><path
         d="m 460.66128,334.87711 a 16.552594,18.01527 0 0 1 16.55259,18.01527 v 48.04072 a 16.552594,18.01527 0 0 1 -16.55259,18.01527 h -27.58767 l -27.58766,18.01526 V 418.94837 H 394.45089 A 16.552594,18.01527 0 0 1 377.8983,400.9331 v -48.04072 a 16.552594,18.01527 0 0 1 16.55259,-18.01527 z"
         id="path1137"
         style="fill:#e58f10;fill-opacity:0;stroke:#732000;stroke-width:5.87375;stroke-linecap:round;stroke-linejoin:round;stroke-dasharray:none;stroke-opacity:0.850785" /><g
         id="g1143"
         transform="matrix(1.5694711,0,0,1.8100181,-503.96318,165.13057)"
         style="fill:#e58f10;fill-opacity:0;stroke:#732000;stroke-width:0.593311;stroke-opacity:0.850785"><g
           id="g1142"
           style="fill:#e58f10;fill-opacity:0;stroke:#732000;stroke-width:0.593311;stroke-opacity:0.850785"><path
             d="m 612.2484,104.59403 a 1.520132,1.520132 0 0 1 -1.52014,1.52014 h -35.44948 a 1.520135,1.520135 0 0 1 0,-3.04027 h 35.44948 a 1.520132,1.520132 0 0 1 1.52014,1.52013 z"
             id="path1138"
             style="fill:#e58f10;fill-opacity:0;stroke:#732000;stroke-width:1.96225;stroke-opacity:0.850785" /><path
             d="m 612.2484,110.93298 a 1.520132,1.520132 0 0 1 -1.52014,1.52014 h -35.44948 a 1.520135,1.520135 0 0 1 0,-3.04027 h 35.44948 a 1.5049307,1.5049307 0 0 1 1.52014,1.52013 z"
             id="path1139"
             style="fill:#e58f10;fill-opacity:0;stroke:#732000;stroke-width:1.96225;stroke-opacity:0.850785" /><path
             d="m 612.2484,117.25673 a 1.520132,1.520132 0 0 1 -1.52014,1.52013 h -35.44948 a 1.520132,1.520132 0 0 1 0,-3.04026 h 35.44948 a 1.520132,1.520132 0 0 1 1.52014,1.52013 z"
             id="path1140"
             style="fill:#e58f10;fill-opacity:0;stroke:#732000;stroke-width:1.96225;stroke-opacity:0.850785" /><path
             d="m 612.2484,123.59568 a 1.520132,1.520132 0 0 1 -1.52014,1.52013 h -22.78678 a 1.520132,1.520132 0 0 1 0,-3.04026 h 22.78678 a 1.5049307,1.5049307 0 0 1 1.52014,1.52013 z"
             id="path1141"
             style="fill:#e58f10;fill-opacity:0;stroke:#732000;stroke-width:1.96225;stroke-opacity:0.850785" /><path
             d="m 612.2484,129.91943 a 1.520132,1.520132 0 0 1 -1.52014,1.52013 h -22.78678 a 1.520132,1.520132 0 0 1 0,-3.04026 h 22.78678 a 1.520132,1.520132 0 0 1 1.52014,1.52013 z"
             id="path1142"
             style="fill:#e58f10;fill-opacity:0;stroke:#732000;stroke-width:1.96225;stroke-opacity:0.850785" /></g></g></g></g><style
     type="text/css"
     id="style1-2">
	.st0{fill:#000000;}
</style></svg>
