<?xml version="1.0" encoding="UTF-8" standalone="no"?>
<!-- Created with Inkscape (http://www.inkscape.org/) -->

<svg
   width="1200"
   height="630"
   viewBox="0 0 317.49999 166.6875"
   version="1.1"
   id="svg1"
   inkscape:version="1.4 (e7c3feb1, 2024-10-09)"
   sodipodi:docname="inkscape-1.svg"
   inkscape:export-filename="text-noto.png"
   inkscape:export-xdpi="300"
   inkscape:export-ydpi="300"
   xmlns:inkscape="http://www.inkscape.org/namespaces/inkscape"
   xmlns:sodipodi="http://sodipodi.sourceforge.net/DTD/sodipodi-0.dtd"
   xmlns="http://www.w3.org/2000/svg"
   xmlns:svg="http://www.w3.org/2000/svg">
  <sodipodi:namedview
     id="namedview1"
     pagecolor="#ffffff"
     bordercolor="#666666"
     borderopacity="1.0"
     inkscape:showpageshadow="2"
     inkscape:pageopacity="0.0"
     inkscape:pagecheckerboard="false"
     inkscape:deskcolor="#d1d1d1"
     inkscape:document-units="px"
     inkscape:zoom="0.86083333"
     inkscape:cx="602.32333"
     inkscape:cy="220.13553"
     inkscape:window-width="1616"
     inkscape:window-height="1006"
     inkscape:window-x="1920"
     inkscape:window-y="1470"
     inkscape:window-maximized="0"
     inkscape:current-layer="layer1"
     showgrid="true">
    <inkscape:grid
       id="grid1"
       units="px"
       originx="0"
       originy="0"
       spacingx="0.26458333"
       spacingy="0.26458333"
       empcolor="#0099e5"
       empopacity="0.30196078"
       color="#0099e5"
       opacity="0.14901961"
       empspacing="5"
       enabled="false"
       visible="true"
       dotted="true" />
  </sodipodi:namedview>
  <defs
     id="defs1" />
  <g
     inkscape:label="Layer 1"
     inkscape:groupmode="layer"
     id="layer1">
    <text
       xml:space="preserve"
       style="font-style:normal;font-variant:normal;font-weight:bold;font-stretch:normal;font-size:14.1111px;line-height:1.25;font-family:'Noto Sans JP';-inkscape-font-specification:'Noto Sans JP, Bold';font-variant-ligatures:normal;font-variant-caps:normal;font-variant-numeric:normal;font-variant-east-asian:normal;stroke-width:0.264583"
       x="63.048794"
       y="28.412113"
       id="use1"
       inkscape:export-filename="text-noto.svg"
       inkscape:export-xdpi="300"
       inkscape:export-ydpi="300"><tspan
         sodipodi:role="line"
         id="tspan3"
         style="font-style:normal;font-variant:normal;font-weight:bold;font-stretch:normal;font-size:14.1111px;font-family:'Noto Sans JP';-inkscape-font-specification:'Noto Sans JP, Bold';font-variant-ligatures:normal;font-variant-caps:normal;font-variant-numeric:normal;font-variant-east-asian:normal;stroke-width:0.264583"
         x="63.048794"
         y="28.412113">01239agIQ漢字ひらがなカタカナ</tspan></text>
    <text
       xml:space="preserve"
       style="font-style:normal;font-variant:normal;font-weight:bold;font-stretch:normal;font-size:19.5869px;line-height:1.25;font-family:'IBM Plex Sans JP';-inkscape-font-specification:'IBM Plex Sans JP, Bold';font-variant-ligatures:normal;font-variant-caps:normal;font-variant-numeric:normal;font-variant-east-asian:normal;stroke-width:0.367254"
       x="58.103161"
       y="49.398071"
       id="use1-1"
       transform="scale(0.80186919,1.2470862)"
       inkscape:export-filename="text-plex.svg"
       inkscape:export-xdpi="304.3208"
       inkscape:export-ydpi="304.3208"><tspan
         sodipodi:role="line"
         id="tspan3-8"
         style="font-style:normal;font-variant:normal;font-weight:bold;font-stretch:normal;font-size:19.5869px;font-family:'IBM Plex Sans JP';-inkscape-font-specification:'IBM Plex Sans JP, Bold';font-variant-ligatures:normal;font-variant-caps:normal;font-variant-numeric:normal;font-variant-east-asian:normal;stroke-width:0.367254"
         x="58.103161"
         y="49.398071">01239agIQ漢字ひらがなカタカナ</tspan></text>
    <rect
       style="fill:#ff6600;stroke-width:0.264583"
       id="rect3"
       width="51.581734"
       height="31.397577"
       x="10.567692"
       y="67.050774" />
    <path
       d="m 78.107268,94.139879 q -1.072444,0 -1.876777,-0.606777 -0.790221,-0.620889 -1.227665,-1.806221 -0.437444,-1.185332 -0.437444,-2.906887 0,-1.735665 0.437444,-2.892775 0.437444,-1.171222 1.227665,-1.763888 0.804333,-0.592666 1.876777,-0.592666 1.072443,0 1.862665,0.592666 0.804333,0.592666 1.241777,1.763888 0.43744,1.15711 0.43744,2.892775 0,1.721555 -0.43744,2.906887 -0.437444,1.185332 -1.241777,1.806221 -0.790222,0.606777 -1.862665,0.606777 z m 0,-1.622776 q 0.465666,0 0.818444,-0.324556 0.352777,-0.338666 0.550333,-1.142999 0.197555,-0.818444 0.197555,-2.229554 0,-1.425221 -0.197555,-2.215442 -0.197556,-0.790222 -0.550333,-1.100666 -0.352778,-0.310444 -0.818444,-0.310444 -0.437444,0 -0.804333,0.310444 -0.352777,0.310444 -0.564444,1.100666 -0.211666,0.790221 -0.211666,2.215442 0,1.41111 0.211666,2.229554 0.211667,0.804333 0.564444,1.142999 0.366889,0.324556 0.804333,0.324556 z m 5.319882,1.425221 v -1.693332 h 2.25778 V 85.94133 h -1.905 v -1.298221 q 0.79022,-0.155222 1.35467,-0.366889 0.57855,-0.211666 1.07244,-0.508 h 1.53811 v 8.480772 h 1.96145 v 1.693332 z m 7.77523,0 V 92.74288 q 1.35466,-1.298221 2.37066,-2.342442 1.016,-1.058333 1.58045,-1.91911 0.56444,-0.874888 0.56444,-1.622777 0,-0.52211 -0.18344,-0.888999 -0.18345,-0.366889 -0.53623,-0.564444 -0.33866,-0.197555 -0.84666,-0.197555 -0.56445,0 -1.04422,0.324555 -0.46567,0.324555 -0.86078,0.747888 l -1.15711,-1.128888 q 0.73378,-0.77611 1.49578,-1.171221 0.77611,-0.409222 1.83444,-0.409222 0.98778,0 1.72155,0.395111 0.74789,0.395111 1.15711,1.114777 0.40923,0.705555 0.40923,1.66511 0,0.874888 -0.49389,1.792109 -0.47978,0.917222 -1.28411,1.862666 -0.79022,0.931332 -1.73567,1.919109 0.39511,-0.05644 0.87489,-0.08467 0.47978,-0.04233 0.84667,-0.04233 h 2.28599 v 1.749777 z m 11.57111,0.197555 q -0.81844,0 -1.46755,-0.197555 -0.64911,-0.183445 -1.15711,-0.508 -0.49389,-0.338666 -0.86078,-0.747888 l 0.97367,-1.312333 q 0.47978,0.437445 1.04422,0.762 0.57855,0.310444 1.28411,0.310444 0.53622,0 0.93133,-0.155222 0.40922,-0.169333 0.62089,-0.479777 0.22578,-0.310445 0.22578,-0.747889 0,-0.493888 -0.254,-0.846666 -0.23989,-0.366888 -0.86078,-0.550333 -0.62089,-0.197555 -1.74978,-0.197555 v -1.495777 q 0.95956,0 1.50989,-0.197555 0.55034,-0.197556 0.77611,-0.536222 0.23989,-0.338666 0.23989,-0.77611 0,-0.606778 -0.36689,-0.931333 -0.36689,-0.324555 -1.03011,-0.324555 -0.55033,0 -1.03011,0.253999 -0.46566,0.239889 -0.93133,0.677333 L 99.5985,84.868886 q 0.69144,-0.592666 1.45344,-0.945443 0.762,-0.352778 1.67922,-0.352778 1.00189,0 1.76389,0.324555 0.77611,0.310445 1.19944,0.931333 0.42333,0.606777 0.42333,1.481665 0,0.818444 -0.45155,1.396999 -0.45156,0.564444 -1.28411,0.903111 v 0.07055 q 0.57855,0.155222 1.04422,0.493889 0.47978,0.338666 0.74789,0.846666 0.28222,0.493888 0.28222,1.171221 0,0.931333 -0.508,1.594554 -0.49389,0.663222 -1.34055,1.016 -0.83256,0.338666 -1.83445,0.338666 z m 8.04333,0 q -0.95955,0 -1.66511,-0.352777 -0.70555,-0.352778 -1.17122,-0.832555 l 1.10067,-1.255888 q 0.26811,0.324555 0.70555,0.536222 0.45156,0.211666 0.90311,0.211666 0.635,0 1.143,-0.352777 0.52211,-0.366889 0.81844,-1.213555 0.31045,-0.846666 0.31045,-2.300109 0,-1.269999 -0.254,-2.017888 -0.23989,-0.761999 -0.64911,-1.086554 -0.40922,-0.338667 -0.93133,-0.338667 -0.381,0 -0.70556,0.197556 -0.32455,0.197555 -0.52211,0.606777 -0.18344,0.395111 -0.18344,1.001888 0,0.564444 0.18344,0.945444 0.18344,0.366888 0.52211,0.550333 0.33867,0.169333 0.79022,0.169333 0.42334,0 0.889,-0.268111 0.46567,-0.268111 0.84667,-0.917222 l 0.0988,1.396999 q -0.26812,0.395111 -0.66323,0.677333 -0.39511,0.282222 -0.80433,0.437444 -0.39511,0.155222 -0.762,0.155222 -0.87489,0 -1.55222,-0.338666 -0.67733,-0.352778 -1.07244,-1.044222 -0.381,-0.691443 -0.381,-1.763887 0,-1.044221 0.45155,-1.79211 0.45156,-0.761999 1.19945,-1.171221 0.74788,-0.409222 1.63688,-0.409222 0.74789,0 1.41111,0.296333 0.67734,0.296333 1.19945,0.903111 0.53622,0.606777 0.83255,1.552221 0.31045,0.945443 0.31045,2.257776 0,1.453443 -0.32456,2.511775 -0.32455,1.044222 -0.90311,1.721555 -0.57855,0.677332 -1.31233,1.001888 -0.71967,0.324555 -1.49578,0.324555 z m 7.80344,0 q -0.69144,0 -1.22766,-0.296333 -0.52212,-0.310444 -0.81845,-0.846666 -0.28222,-0.536222 -0.28222,-1.213555 0,-1.255888 1.08655,-1.947331 1.08656,-0.705555 3.45722,-0.959555 -0.0141,-0.395111 -0.14111,-0.691444 -0.127,-0.310444 -0.42333,-0.493889 -0.28222,-0.183444 -0.77611,-0.183444 -0.55033,0 -1.08656,0.211666 -0.53622,0.211667 -1.08655,0.550333 l -0.73378,-1.382887 q 0.46567,-0.296334 0.98778,-0.522111 0.52211,-0.225778 1.10067,-0.366889 0.57855,-0.155222 1.19944,-0.155222 1.00189,0 1.67922,0.395111 0.67733,0.395111 1.016,1.171221 0.33867,0.776111 0.33867,1.91911 v 4.61433 h -1.69334 l -0.14111,-0.846666 h -0.0705 q -0.508,0.451555 -1.10067,0.747888 -0.59266,0.296333 -1.28411,0.296333 z m 0.69145,-1.622776 q 0.43744,0 0.79022,-0.197556 0.36689,-0.211666 0.73377,-0.578555 v -1.580443 q -0.95955,0.112889 -1.52399,0.324555 -0.56445,0.211667 -0.80434,0.508 -0.23989,0.282222 -0.23989,0.634999 0,0.465667 0.28223,0.677333 0.29633,0.211667 0.762,0.211667 z m 8.49487,4.854218 q -0.93133,0 -1.67922,-0.225778 -0.74789,-0.211666 -1.18533,-0.663221 -0.42333,-0.437444 -0.42333,-1.142999 0,-0.493889 0.28222,-0.917222 0.28222,-0.423333 0.84667,-0.719666 v -0.07056 q -0.31045,-0.197555 -0.52212,-0.52211 -0.19755,-0.324556 -0.19755,-0.818444 0,-0.437444 0.254,-0.818444 0.26811,-0.395111 0.62089,-0.64911 v -0.05645 q -0.40922,-0.296333 -0.73378,-0.832555 -0.32455,-0.536222 -0.32455,-1.241777 0,-0.931332 0.43744,-1.566332 0.45155,-0.634999 1.18533,-0.959555 0.73378,-0.324555 1.55222,-0.324555 0.35278,0 0.64911,0.05645 0.31045,0.05644 0.56445,0.141111 h 2.83633 v 1.523998 h -1.34056 q 0.15523,0.211667 0.254,0.522111 0.0988,0.310444 0.0988,0.677333 0,0.888999 -0.40922,1.495777 -0.40922,0.592666 -1.10067,0.888999 -0.69144,0.296333 -1.55222,0.296333 -0.21166,0 -0.47977,-0.04233 -0.26812,-0.05644 -0.53623,-0.141111 -0.15522,0.141111 -0.254,0.296333 -0.0847,0.141111 -0.0847,0.395111 0,0.296333 0.26811,0.465666 0.28222,0.169333 0.97366,0.169333 h 1.35467 q 1.42522,0 2.18722,0.479777 0.762,0.465667 0.762,1.495777 0,0.804333 -0.53622,1.425221 -0.52211,0.635 -1.49578,1.001888 -0.95955,0.381 -2.27189,0.381 z m 0.11289,-7.210772 q 0.35278,0 0.635,-0.169333 0.28222,-0.169334 0.45156,-0.493889 0.16933,-0.338666 0.16933,-0.804333 0,-0.465666 -0.16933,-0.77611 -0.16934,-0.324555 -0.45156,-0.479778 -0.28222,-0.169333 -0.635,-0.169333 -0.33866,0 -0.62089,0.169333 -0.28222,0.155223 -0.45155,0.479778 -0.15522,0.310444 -0.15522,0.77611 0,0.465667 0.15522,0.804333 0.16933,0.324555 0.45155,0.493889 0.28223,0.169333 0.62089,0.169333 z m 0.19756,5.884329 q 0.60678,0 1.04422,-0.155223 0.45155,-0.155222 0.70555,-0.409221 0.254,-0.254 0.254,-0.564444 0,-0.423333 -0.33866,-0.578556 -0.33867,-0.141111 -0.97367,-0.141111 h -0.97366 q -0.35278,0 -0.60678,-0.02822 -0.254,-0.01411 -0.47978,-0.07055 -0.26811,0.211666 -0.39511,0.437444 -0.11289,0.239889 -0.11289,0.493888 0,0.479778 0.508,0.747889 0.508,0.268111 1.36878,0.268111 z m 5.50333,-2.102554 V 83.485998 h 2.08844 v 10.456326 z m 8.80532,0.197555 q -1.38288,0 -2.44122,-0.649111 -1.04422,-0.663221 -1.63688,-1.890887 -0.59267,-1.227666 -0.59267,-2.935109 0,-1.693332 0.59267,-2.892775 0.59266,-1.199444 1.63688,-1.834443 1.05834,-0.635 2.44122,-0.635 1.397,0 2.44122,0.649111 1.04423,0.634999 1.63689,1.834443 0.59267,1.185332 0.59267,2.878664 0,1.707443 -0.59267,2.935109 -0.59266,1.227666 -1.63689,1.890887 -1.04422,0.649111 -2.44122,0.649111 z m 0,-1.707443 q 0.77611,0 1.34056,-0.451555 0.57855,-0.451555 0.889,-1.298221 0.31044,-0.846666 0.31044,-2.017888 0,-1.114777 -0.31044,-1.904998 -0.31045,-0.804333 -0.889,-1.227666 -0.56445,-0.437444 -1.34056,-0.437444 -0.77611,0 -1.35466,0.437444 -0.56445,0.423333 -0.87489,1.227666 -0.29633,0.790221 -0.29633,1.904998 0,1.171222 0.29633,2.017888 0.31044,0.846666 0.87489,1.298221 0.57855,0.451555 1.35466,0.451555 z m 3.38667,4.346219 q -1.11478,0 -1.98967,-0.381 -0.87489,-0.381 -1.48166,-1.044221 -0.60678,-0.649111 -0.94545,-1.481666 l 2.11667,-0.211666 q 0.21166,0.507999 0.59266,0.832555 0.39512,0.324555 0.90312,0.465666 0.50799,0.155222 1.03011,0.155222 0.33866,0 0.62088,-0.05644 0.29634,-0.05644 0.52211,-0.127 l 0.381,1.53811 q -0.28222,0.127 -0.73377,0.211666 -0.45156,0.09878 -1.016,0.09878 z m 6.54756,-13.857101 h 9.00288 v 1.368777 h -9.00288 z m -0.127,8.184439 h 9.25688 v 1.312332 h -9.25688 z m 2.18722,-4.600219 v 0.931332 h 4.74133 v -0.931332 z m -1.48167,-1.171221 h 7.78933 v 3.273775 h -7.78933 z m -0.18344,3.894663 h 8.18443 v 1.269999 h -8.18443 z m 3.16088,-3.231442 h 1.651 v 3.739442 q 0,0.634999 -0.127,1.269999 -0.11289,0.634999 -0.42333,1.241777 -0.29633,0.592666 -0.84667,1.142999 -0.53622,0.536222 -1.35466,1.001888 -0.81845,0.465666 -1.97556,0.818444 -0.0988,-0.169334 -0.28222,-0.409222 -0.16933,-0.239889 -0.36689,-0.479778 -0.19755,-0.239888 -0.381,-0.380999 1.08656,-0.268111 1.82033,-0.635 0.74789,-0.366888 1.19945,-0.790221 0.46566,-0.423333 0.69144,-0.874889 0.23989,-0.465666 0.31045,-0.945443 0.0847,-0.493889 0.0847,-0.973666 z m 1.86267,5.587996 q 0.49389,0.860777 1.48166,1.439332 0.98778,0.564444 2.34245,0.790222 -0.16934,0.155222 -0.381,0.395111 -0.19756,0.253999 -0.36689,0.507999 -0.16933,0.268111 -0.29633,0.479778 -1.48167,-0.366889 -2.52589,-1.199444 -1.04422,-0.818444 -1.651,-2.046109 z m -3.51367,-9.637881 h 1.55223 v 3.160886 h -1.55223 z m 3.35845,0 h 1.58044 v 3.160886 h -1.58044 z m -8.636,1.326443 0.94545,-1.269999 q 0.40922,0.155222 0.87488,0.395111 0.47978,0.225777 0.889,0.479777 0.42334,0.254 0.69145,0.493889 l -0.98778,1.396999 q -0.254,-0.254 -0.66322,-0.522111 -0.39511,-0.268111 -0.86078,-0.536222 -0.46566,-0.268111 -0.889,-0.437444 z m -0.73377,3.809997 0.91722,-1.28411 q 0.42333,0.155222 0.889,0.366888 0.46566,0.211667 0.87488,0.465667 0.42334,0.239888 0.69145,0.465666 l -0.97367,1.41111 q -0.23989,-0.239889 -0.64911,-0.493888 -0.40922,-0.268111 -0.87489,-0.508 -0.45155,-0.239889 -0.87488,-0.423333 z m 0.35277,6.956772 q 0.32456,-0.550333 0.71967,-1.28411 0.39511,-0.747888 0.80433,-1.580443 0.40922,-0.846666 0.74789,-1.679221 l 1.34055,1.015999 q -0.31044,0.762 -0.66322,1.552221 -0.35277,0.776111 -0.70555,1.53811 -0.35278,0.747889 -0.71967,1.439332 z m 16.66521,-8.015105 h 6.30766 v 1.53811 h -6.30766 z m -2.39889,3.499553 h 12.34722 v 1.608666 h -12.34722 z m 5.23522,-0.888999 h 1.80622 v 4.628441 q 0,0.677333 -0.19755,1.058332 -0.18345,0.381 -0.70556,0.578555 -0.49389,0.183445 -1.18533,0.225778 -0.67733,0.05644 -1.56633,0.05644 -0.0423,-0.253999 -0.16933,-0.578555 -0.127,-0.310444 -0.26812,-0.620888 -0.14111,-0.310444 -0.28222,-0.536222 0.43745,0.01411 0.889,0.02822 0.45156,0 0.81845,0 0.36688,0 0.49388,0 0.21167,0 0.28223,-0.05644 0.0847,-0.05644 0.0847,-0.197555 z m 2.94922,-2.610554 h 0.45156 l 0.381,-0.07055 1.10066,0.832555 q -0.46566,0.522111 -1.04422,1.072443 -0.56444,0.536222 -1.22766,1.016 -0.64911,0.479777 -1.32645,0.846666 -0.15522,-0.225778 -0.43744,-0.493889 -0.26811,-0.282222 -0.45156,-0.451555 0.508,-0.310444 1.00189,-0.733777 0.49389,-0.423333 0.90311,-0.874888 0.40922,-0.451556 0.64911,-0.804333 z m -2.96333,-4.078107 H 169.9 v 2.582331 h -1.80622 z m -5.17877,1.354665 H 175.107 v 3.668886 h -1.74978 v -2.06022 h -8.7771 v 2.06022 h -1.66511 z m 23.72076,-0.155222 q 0.0988,0.663222 0.28222,1.41111 0.18344,0.733777 0.508,1.509888 0.33866,0.77611 0.87489,1.552221 0.53622,0.77611 1.34055,1.523999 l -1.143,1.636887 q -0.762,-0.874888 -1.41111,-1.93322 -0.64911,-1.072444 -1.19944,-2.370665 -0.55033,-1.298222 -1.04422,-2.836331 z m -9.31333,0.705555 q 0.381,0.02822 0.80433,0 0.508,-0.02822 1.143,-0.08467 0.64911,-0.07055 1.31233,-0.169333 0.67734,-0.09878 1.24178,-0.211666 0.57856,-0.112889 0.93133,-0.239889 l 0.52211,1.566332 q -0.15522,0.05644 -0.35277,0.141111 -0.19756,0.07056 -0.35278,0.169333 -0.29633,0.225778 -0.67733,0.606778 -0.36689,0.380999 -0.762,0.90311 -0.381,0.522111 -0.70556,1.171221 -0.32455,0.635 -0.52211,1.382888 -0.19755,0.733777 -0.19755,1.552221 0,0.620889 0.18344,1.058333 0.18344,0.437444 0.508,0.719666 0.33867,0.268111 0.77611,0.395111 0.43744,0.127 0.94544,0.127 1.60867,0 2.45534,-1.100666 0.84666,-1.100666 0.95955,-3.104442 0.11289,-2.003777 -0.52211,-4.698997 l 1.66511,2.69522 q 0.23989,1.143 0.26811,2.30011 0.0423,1.15711 -0.19755,2.201331 -0.22578,1.030111 -0.79023,1.848555 -0.55033,0.818443 -1.50988,1.28411 -0.94545,0.479777 -2.37067,0.479777 -0.84666,0 -1.60866,-0.239889 -0.74789,-0.239888 -1.34056,-0.705555 -0.57855,-0.465666 -0.91722,-1.185332 -0.32456,-0.719666 -0.32456,-1.679221 0,-0.860777 0.16934,-1.622776 0.16933,-0.762 0.46566,-1.453444 0.31045,-0.691444 0.71967,-1.340554 0.42333,-0.649111 0.91722,-1.269999 -0.26811,0.02822 -0.635,0.07055 -0.35278,0.02822 -0.67733,0.07056 -0.32456,0.04233 -0.53622,0.07055 -0.22578,0.02822 -0.42334,0.05644 -0.18344,0.02822 -0.42333,0.07055 z m 17.58243,-1.269999 q 0.508,0.155222 1.27,0.324555 0.762,0.169334 1.59455,0.338667 0.83256,0.155222 1.56634,0.268111 0.74788,0.112888 1.21355,0.169333 l -0.42333,1.721554 q -0.42334,-0.05644 -1.03011,-0.155222 -0.59267,-0.112889 -1.27,-0.239889 -0.66322,-0.127 -1.31233,-0.254 -0.64912,-0.141111 -1.18534,-0.26811 -0.53622,-0.127 -0.87489,-0.211667 z m 0.0847,2.836331 q -0.0706,0.282222 -0.15523,0.733777 -0.0705,0.437444 -0.14111,0.917222 -0.0705,0.479777 -0.14111,0.917221 -0.0564,0.437444 -0.0988,0.733778 0.95956,-0.691444 2.00378,-1.016 1.05833,-0.324555 2.159,-0.324555 1.24178,0 2.11666,0.451555 0.87489,0.451555 1.32645,1.185333 0.46566,0.733777 0.46566,1.594554 0,0.959555 -0.40922,1.777999 -0.40922,0.818443 -1.34055,1.396999 -0.93133,0.578555 -2.44122,0.818443 -1.50989,0.239889 -3.71122,0.05644 l -0.53622,-1.848554 q 2.11666,0.282222 3.55599,0.08467 1.43934,-0.211666 2.17311,-0.818444 0.74789,-0.620888 0.74789,-1.509887 0,-0.465667 -0.26811,-0.818444 -0.26811,-0.366889 -0.74789,-0.564444 -0.47978,-0.211667 -1.08655,-0.211667 -1.18534,0 -2.22956,0.437445 -1.03011,0.423333 -1.69333,1.227665 -0.18344,0.225778 -0.31044,0.423333 -0.11289,0.183445 -0.21167,0.395111 l -1.62278,-0.409222 q 0.0847,-0.409222 0.16934,-0.959555 0.0847,-0.564444 0.16933,-1.199443 0.0847,-0.649111 0.15522,-1.298221 0.0706,-0.649111 0.127,-1.284111 0.0565,-0.634999 0.0847,-1.15711 z m 15.73387,-2.525887 q -0.0564,0.268111 -0.127,0.592666 -0.0705,0.310445 -0.127,0.578556 -0.0564,0.310444 -0.14111,0.705555 -0.0847,0.380999 -0.16933,0.77611 -0.0706,0.381 -0.15522,0.747888 -0.14111,0.606778 -0.35278,1.41111 -0.21167,0.804333 -0.49389,1.735666 -0.28222,0.917221 -0.635,1.848554 -0.35278,0.931332 -0.74789,1.820332 -0.39511,0.874888 -0.84666,1.580443 l -1.83448,-0.733777 q 0.49389,-0.663222 0.91723,-1.481666 0.43744,-0.832555 0.79022,-1.693332 0.35277,-0.874888 0.62089,-1.721554 0.28222,-0.860777 0.47977,-1.594554 0.21167,-0.733778 0.32456,-1.255888 0.19755,-0.959555 0.31044,-1.848554 0.11289,-0.889 0.0847,-1.679221 z m 4.85422,1.425221 q 0.33867,0.465667 0.69144,1.142999 0.36689,0.663222 0.71967,1.41111 0.35278,0.747889 0.635,1.439333 0.28222,0.691444 0.43744,1.199443 l -1.79211,0.818444 q -0.127,-0.592666 -0.38099,-1.312332 -0.23989,-0.719666 -0.56445,-1.453444 -0.32455,-0.747888 -0.69144,-1.41111 -0.35278,-0.663221 -0.73378,-1.114777 z m -10.58332,1.467555 q 0.381,0.02822 0.74788,0.02822 0.381,-0.01411 0.762,-0.02822 0.35278,-0.01411 0.84667,-0.04233 0.49389,-0.04233 1.04422,-0.08467 0.56444,-0.04233 1.12889,-0.08467 0.56444,-0.05644 1.04422,-0.08467 0.47978,-0.02822 0.79022,-0.02822 0.762,0 1.32645,0.254 0.56444,0.239889 0.88899,0.832555 0.33867,0.592666 0.33867,1.608666 0,0.832555 -0.0705,1.80622 -0.0706,0.973666 -0.254,1.862666 -0.16934,0.888999 -0.47978,1.509887 -0.33867,0.733778 -0.93133,1.016 -0.57856,0.282222 -1.38289,0.282222 -0.39511,0 -0.86078,-0.07056 -0.46567,-0.05644 -0.83255,-0.127 l -0.29634,-1.862665 q 0.26811,0.07055 0.59267,0.141111 0.33867,0.07055 0.635,0.112889 0.31044,0.04233 0.49389,0.04233 0.35277,0 0.62089,-0.127 0.26811,-0.141111 0.43744,-0.479777 0.19756,-0.409222 0.32455,-1.058333 0.127,-0.64911 0.18345,-1.396999 0.0705,-0.761999 0.0705,-1.453443 0,-0.564444 -0.16933,-0.832555 -0.15522,-0.268111 -0.46566,-0.352777 -0.29634,-0.09878 -0.73378,-0.09878 -0.32456,0 -0.87489,0.05644 -0.55033,0.04233 -1.18533,0.112889 -0.62089,0.05644 -1.15711,0.127 -0.53622,0.07055 -0.83256,0.09878 -0.31044,0.05644 -0.79022,0.127 -0.46567,0.05644 -0.79022,0.112888 z m 10.32932,-3.428998 q 0.18345,0.254 0.381,0.606778 0.21167,0.352777 0.40922,0.705555 0.19756,0.352777 0.33867,0.620888 l -1.143,0.493889 q -0.14111,-0.296333 -0.32456,-0.649111 -0.18344,-0.352777 -0.38099,-0.705555 -0.19756,-0.352777 -0.39512,-0.606777 z m 1.67922,-0.634999 q 0.18345,0.268111 0.39511,0.620888 0.21167,0.352778 0.40922,0.705555 0.21167,0.352778 0.32456,0.592667 l -1.11478,0.479777 q -0.22577,-0.437444 -0.53622,-0.987777 -0.31044,-0.564444 -0.60678,-0.959555 z m 2.58233,2.977442 q 0.45156,0.05644 0.95956,0.08467 0.52211,0.01411 0.91722,0.01411 0.87489,0 1.76389,-0.09878 0.90311,-0.09878 1.73566,-0.254 0.83256,-0.169333 1.50989,-0.380999 l 0.0564,1.636887 q -0.60677,0.155222 -1.45344,0.324555 -0.83255,0.155223 -1.76389,0.268111 -0.93133,0.09878 -1.83444,0.09878 -0.42333,0 -0.86078,-0.01411 -0.43744,-0.01411 -0.90311,-0.04233 z m 5.48922,-2.116665 q -0.0847,0.352778 -0.22578,0.917222 -0.14111,0.564444 -0.32455,1.185332 -0.16934,0.620888 -0.36689,1.227666 -0.31045,1.015999 -0.81844,2.158998 -0.508,1.142999 -1.10067,2.229554 -0.59267,1.086555 -1.19944,1.933221 l -1.70745,-0.874889 q 0.47978,-0.592666 0.94545,-1.312332 0.46566,-0.719666 0.87488,-1.481666 0.40923,-0.761999 0.73378,-1.467554 0.33867,-0.719666 0.53622,-1.298221 0.26811,-0.747888 0.46567,-1.66511 0.21167,-0.931333 0.23989,-1.749776 z m 3.302,4.388552 q -0.0282,0.451555 -0.0282,0.903111 0.0141,0.437444 0.0282,0.90311 0.0141,0.324555 0.0282,0.832555 0.0282,0.493888 0.0564,1.058332 0.0282,0.550333 0.0423,1.058333 0.0282,0.493888 0.0282,0.790222 0,0.64911 -0.26811,1.185332 -0.26811,0.522111 -0.86078,0.832555 -0.57855,0.310444 -1.59455,0.310444 -0.87489,0 -1.58045,-0.268111 -0.70555,-0.254 -1.12888,-0.761999 -0.42334,-0.522111 -0.42334,-1.298221 0,-0.691444 0.36689,-1.241777 0.36689,-0.564444 1.05833,-0.874888 0.70556,-0.324556 1.69334,-0.324556 1.24177,0 2.28599,0.352778 1.04423,0.338666 1.87678,0.874888 0.83256,0.536222 1.42522,1.072444 l -0.94544,1.509887 q -0.381,-0.338666 -0.87489,-0.761999 -0.47978,-0.423333 -1.08655,-0.790222 -0.59267,-0.366888 -1.29823,-0.606777 -0.69144,-0.239889 -1.49577,-0.239889 -0.60678,0 -0.97367,0.239889 -0.36689,0.239889 -0.36689,0.620888 0,0.395111 0.31045,0.635 0.32455,0.239889 0.90311,0.239889 0.47978,0 0.762,-0.155223 0.28222,-0.169333 0.39511,-0.465666 0.11289,-0.310444 0.11289,-0.691444 0,-0.324555 -0.0282,-0.917221 -0.0282,-0.592666 -0.0705,-1.312333 -0.0282,-0.719666 -0.0564,-1.439332 -0.0282,-0.719666 -0.0564,-1.269999 z m 2.42711,0.747888 q -0.40922,-0.338666 -1.016,-0.719666 -0.60678,-0.380999 -1.25589,-0.719666 -0.635,-0.352777 -1.11478,-0.564444 l 0.90311,-1.396999 q 0.381,0.169334 0.86078,0.423333 0.49389,0.239889 0.98778,0.508 0.508,0.268111 0.93133,0.536222 0.43744,0.254 0.70556,0.451555 z m 9.22866,-5.094107 q -0.0282,0.239889 -0.0564,0.620889 -0.0141,0.380999 -0.0282,0.634999 -0.0565,2.102554 -0.35278,3.739442 -0.29633,1.622776 -0.84666,2.878664 -0.55034,1.255888 -1.397,2.257776 -0.84667,0.987777 -2.01789,1.820332 l -1.63689,-1.326443 q 0.43745,-0.254 0.93133,-0.592666 0.508,-0.352778 0.91723,-0.790222 0.69144,-0.677333 1.17122,-1.481666 0.47977,-0.818443 0.762,-1.777998 0.29633,-0.973666 0.43744,-2.130776 0.14111,-1.157111 0.14111,-2.554109 0,-0.155223 -0.0141,-0.395111 -0.0141,-0.254 -0.0423,-0.493889 -0.0141,-0.239888 -0.0423,-0.409222 z m 4.79777,3.019776 q -0.0282,0.169333 -0.0706,0.395111 -0.0282,0.225777 -0.0282,0.352777 -0.0141,0.451555 -0.0564,1.15711 -0.0282,0.705555 -0.0988,1.523999 -0.0564,0.804333 -0.15522,1.608666 -0.0847,0.804332 -0.21167,1.495776 -0.127,0.677333 -0.31044,1.114777 -0.22578,0.536222 -0.66322,0.804333 -0.42334,0.282222 -1.15711,0.282222 -0.60678,0 -1.21356,-0.04233 -0.60678,-0.02822 -1.12889,-0.07055 l -0.21166,-1.890887 q 0.52211,0.09878 1.04422,0.155222 0.52211,0.04233 0.93133,0.04233 0.35278,0 0.52211,-0.112889 0.16933,-0.127 0.28222,-0.381 0.11289,-0.282222 0.21167,-0.747888 0.0988,-0.465666 0.16933,-1.044221 0.0706,-0.578555 0.11289,-1.199444 0.0565,-0.620888 0.0706,-1.199443 0.0282,-0.592667 0.0282,-1.044222 h -6.88622 q -0.35278,0 -0.87489,0.01411 -0.52211,0 -0.98777,0.04233 v -1.848554 q 0.45155,0.04233 0.95955,0.07056 0.508,0.02822 0.90311,0.02822 h 6.53344 q 0.26811,0 0.53622,-0.02822 0.28223,-0.02822 0.52211,-0.07056 z m 7.85988,1.693332 q 0.64911,0.366888 1.41111,0.874888 0.77611,0.493888 1.56633,1.03011 0.79023,0.536222 1.48167,1.044222 0.70555,0.507999 1.18533,0.90311 l -1.34055,1.594554 q -0.46567,-0.423333 -1.15711,-0.973665 -0.67734,-0.564444 -1.46756,-1.143 -0.79022,-0.592666 -1.56633,-1.128888 -0.762,-0.536221 -1.36878,-0.917221 z m 6.63222,-2.398887 q -0.127,0.197555 -0.254,0.465666 -0.127,0.268111 -0.21167,0.536222 -0.21166,0.64911 -0.57855,1.453443 -0.35278,0.790222 -0.84667,1.622777 -0.49389,0.818444 -1.12889,1.608665 -1.00188,1.241777 -2.41299,2.356554 -1.397,1.114777 -3.429,1.890887 l -1.63692,-1.425221 q 1.48167,-0.451555 2.56822,-1.072443 1.08656,-0.620889 1.87678,-1.326444 0.80433,-0.705555 1.397,-1.41111 0.47977,-0.550333 0.90311,-1.227666 0.43744,-0.691444 0.74788,-1.368776 0.32456,-0.691444 0.45156,-1.227666 h -4.76955 l 0.64911,-1.608665 h 4.00755 q 0.33867,0 0.66322,-0.04233 0.33867,-0.04233 0.56445,-0.112889 z m -4.65666,-2.17311 q -0.254,0.366889 -0.508,0.790222 -0.23989,0.423333 -0.36689,0.649111 -0.47978,0.846666 -1.21356,1.80622 -0.73377,0.945444 -1.651,1.848554 -0.90311,0.903111 -1.91911,1.608666 l -1.52399,-1.171221 q 1.24177,-0.776111 2.10255,-1.622777 0.87489,-0.860777 1.45344,-1.650999 0.57856,-0.804332 0.93134,-1.425221 0.16933,-0.254 0.35277,-0.677333 0.19756,-0.437444 0.29634,-0.790221 z m 13.58898,-0.141111 q -0.0282,0.239889 -0.0564,0.620889 -0.0141,0.380999 -0.0282,0.634999 -0.0565,2.102554 -0.35278,3.739442 -0.29633,1.622776 -0.84667,2.878664 -0.55033,1.255888 -1.39699,2.257776 -0.84667,0.987777 -2.01789,1.820332 l -1.63689,-1.326443 q 0.43744,-0.254 0.93133,-0.592666 0.508,-0.352778 0.91722,-0.790222 0.69145,-0.677333 1.17123,-1.481666 0.47977,-0.818443 0.762,-1.777998 0.29633,-0.973666 0.43744,-2.130776 0.14111,-1.157111 0.14111,-2.554109 0,-0.155223 -0.0141,-0.395111 -0.0141,-0.254 -0.0423,-0.493889 -0.0141,-0.239888 -0.0423,-0.409222 z m 4.79778,3.019776 q -0.0282,0.169333 -0.0706,0.395111 -0.0282,0.225777 -0.0282,0.352777 -0.0141,0.451555 -0.0564,1.15711 -0.0282,0.705555 -0.0988,1.523999 -0.0564,0.804333 -0.15522,1.608666 -0.0847,0.804332 -0.21167,1.495776 -0.127,0.677333 -0.31044,1.114777 -0.22578,0.536222 -0.66323,0.804333 -0.42333,0.282222 -1.15711,0.282222 -0.60677,0 -1.21355,-0.04233 -0.60678,-0.02822 -1.12889,-0.07055 l -0.21167,-1.890887 q 0.52212,0.09878 1.04423,0.155222 0.52211,0.04233 0.93133,0.04233 0.35278,0 0.52211,-0.112889 0.16933,-0.127 0.28222,-0.381 0.11289,-0.282222 0.21167,-0.747888 0.0988,-0.465666 0.16933,-1.044221 0.0706,-0.578555 0.11289,-1.199444 0.0564,-0.620888 0.0706,-1.199443 0.0282,-0.592667 0.0282,-1.044222 h -6.88622 q -0.35278,0 -0.87489,0.01411 -0.52211,0 -0.98777,0.04233 v -1.848554 q 0.45155,0.04233 0.95955,0.07056 0.508,0.02822 0.90311,0.02822 h 6.53344 q 0.26811,0 0.53622,-0.02822 0.28222,-0.02822 0.52211,-0.07056 z m 8.2691,-1.213555 q 0,-0.352777 -0.0423,-0.832555 -0.0423,-0.493888 -0.14111,-0.818444 h 2.24366 q -0.0564,0.324556 -0.0847,0.832555 -0.0282,0.493889 -0.0282,0.832555 0,0.395111 0,0.860777 0,0.465667 0,0.959555 0,0.493889 0,0.959555 0,1.15711 -0.18344,2.201332 -0.18344,1.03011 -0.635,1.975554 -0.43744,0.945443 -1.22767,1.777998 -0.77611,0.832555 -1.98966,1.552221 l -1.74978,-1.298221 q 1.11478,-0.508 1.84856,-1.171221 0.74789,-0.663222 1.18533,-1.453444 0.43744,-0.790221 0.62089,-1.693332 0.18344,-0.90311 0.18344,-1.890887 0,-0.465666 0,-0.959555 0,-0.507999 0,-0.973666 0,-0.479777 0,-0.860777 z m -5.23522,1.453443 q 0.32456,0.02822 0.73378,0.07056 0.40922,0.02822 0.83256,0.02822 0.18344,0 0.69144,0 0.52211,0 1.25589,0 0.73378,0 1.58044,0 0.84667,0 1.69333,0 0.86078,0 1.59456,0 0.73377,0 1.25589,0 0.52211,0 0.71966,0 0.49389,0 0.90311,-0.02822 0.42333,-0.02822 0.635,-0.05644 v 1.919109 q -0.21167,-0.01411 -0.67733,-0.02822 -0.45156,-0.02822 -0.87489,-0.02822 -0.19756,0 -0.71967,0 -0.508,0 -1.25588,0 -0.73378,0 -1.58045,0 -0.83255,0 -1.67922,0 -0.84666,0 -1.58044,0 -0.73378,0 -1.24178,0 -0.508,0 -0.66322,0 -0.46567,0 -0.87489,0.02822 -0.40922,0.01411 -0.74789,0.04233 z"
       id="use1-6"
       style="font-weight:bold;font-size:14.1111px;line-height:1.25;font-family:'Noto Sans JP';-inkscape-font-specification:'Noto Sans JP, Bold';stroke-width:0.264583"
       aria-label="01239agIQ漢字ひらがなカタカナ"
       inkscape:export-filename="text-noto-path.svg"
       inkscape:export-xdpi="300"
       inkscape:export-ydpi="300" />
    <path
       d="m 86.897016,103.50027 q -2.722579,0 -4.093662,-1.91951 -1.371083,-1.919519 -1.371083,-5.503922 0,-3.584403 1.371083,-5.503919 1.371083,-1.939103 4.093662,-1.939103 2.722579,0 4.093662,1.939103 1.371083,1.919516 1.371083,5.503919 0,3.584403 -1.371083,5.503922 -1.371083,1.91951 -4.093662,1.91951 z m 0,-2.48753 q 1.233975,0 1.743234,-0.92059 0.528847,-0.920582 0.528847,-2.683403 v -2.683405 q 0,-1.762821 -0.528847,-2.683406 -0.509259,-0.920584 -1.743234,-0.920584 -1.233975,0 -1.762821,0.920584 -0.509259,0.920585 -0.509259,2.683406 v 2.683405 q 0,1.762821 0.509259,2.683403 0.528846,0.92059 1.762821,0.92059 z m 18.019934,-0.13711 v 2.37001 h -9.93056 v -2.37001 h 3.878206 v -9.852212 h -0.176282 l -2.996796,3.760685 -1.860755,-1.488605 3.466881,-4.407053 h 4.504986 v 11.987185 z m 1.70404,2.37001 v -2.70299 l 4.46582,-3.839031 q 1.1948,-1.038106 1.68447,-1.801995 0.48967,-0.763889 0.48967,-1.664887 v -0.293803 q 0,-0.82265 -0.58761,-1.292736 -0.5876,-0.470085 -1.41025,-0.470085 -0.97935,0 -1.56695,0.56802 -0.56802,0.56802 -0.80307,1.508191 l -2.56588,-0.998932 q 0.52885,-1.606126 1.82158,-2.605057 1.31232,-1.018519 3.38853,-1.018519 1.5082,0 2.60506,0.548433 1.09687,0.548433 1.66489,1.527778 0.58761,0.979345 0.58761,2.232907 0,1.155627 -0.48968,2.115385 -0.48967,0.940171 -1.25356,1.70406 -0.76389,0.76389 -2.01745,1.762822 l -2.82051,2.252489 h 6.89459 v 2.46795 z m 16.51175,-8.63782 q 1.13604,0 1.70406,-0.450498 0.56802,-0.450499 0.56802,-1.194801 v -0.137109 q 0,-0.822649 -0.52885,-1.312322 -0.52885,-0.489672 -1.46902,-0.489672 -0.901,0 -1.66488,0.450498 -0.74431,0.450499 -1.25357,1.292736 l -1.86075,-1.723648 q 0.88141,-1.155627 2.01745,-1.782407 1.13604,-0.626781 2.85969,-0.626781 1.4886,0 2.62464,0.470085 1.13604,0.470086 1.74324,1.33191 0.62678,0.861823 0.62678,1.997863 0,1.312323 -0.78348,2.174146 -0.76389,0.842237 -1.9391,1.07728 v 0.09793 q 1.33191,0.25463 2.15456,1.155628 0.82265,0.88141 0.82265,2.311254 0,1.273144 -0.68555,2.232904 -0.66595,0.95976 -1.89992,1.48861 -1.21439,0.52884 -2.80093,0.52884 -1.97828,0 -3.21225,-0.72471 -1.21439,-0.7443 -2.01745,-1.99787 l 2.15455,-1.684469 q 0.52885,0.979349 1.25357,1.508189 0.72471,0.50926 1.82158,0.50926 1.09686,0 1.70406,-0.54843 0.60719,-0.54844 0.60719,-1.488606 v -0.156695 q 0,-0.900998 -0.66595,-1.371083 -0.66596,-0.489673 -1.89993,-0.489673 h -1.3515 V 94.60782 Z m 9.12749,8.63782 q 2.82052,-1.99786 4.26995,-3.623573 1.44943,-1.625713 1.86075,-3.60399 l -0.15669,-0.05876 q -0.47009,0.979345 -1.21439,1.566952 -0.7443,0.587607 -1.99786,0.587607 -1.17522,0 -2.13498,-0.548434 -0.95975,-0.56802 -1.50819,-1.566952 -0.54843,-1.018518 -0.54843,-2.350428 0,-1.44943 0.64637,-2.585471 0.66595,-1.155627 1.86075,-1.782408 1.21439,-0.646367 2.80093,-0.646367 1.66489,0 2.85969,0.705128 1.1948,0.685542 1.82158,1.978277 0.64637,1.273149 0.64637,2.996796 0,1.919516 -0.74431,3.643163 -0.7443,1.723648 -1.91951,3.05556 -1.17522,1.33191 -2.48754,2.2329 z m 3.87821,-7.384258 q 1.07728,0 1.66489,-0.587607 0.60719,-0.607194 0.60719,-1.723647 v -0.313391 q 0,-1.116453 -0.60719,-1.70406 -0.58761,-0.607194 -1.66489,-0.607194 -1.07728,0 -1.66489,0.607194 -0.5876,0.587607 -0.5876,1.70406 v 0.313391 q 0,1.116453 0.5876,1.723647 0.58761,0.587607 1.66489,0.587607 z m 10.34187,7.638888 q -1.60613,0 -2.50712,-0.86182 -0.88142,-0.86182 -0.88142,-2.29167 0,-1.664884 1.19481,-2.507121 1.21438,-0.842237 3.44729,-0.842237 h 1.74323 v -0.724715 q 0,-1.782408 -1.86075,-1.782408 -0.84224,0 -1.41026,0.352564 -0.54843,0.352564 -0.95976,0.959758 l -1.72364,-1.527778 q 0.66595,-0.998932 1.68447,-1.527778 1.01852,-0.528846 2.60506,-0.528846 2.2329,0 3.38853,1.018518 1.17522,0.998932 1.17522,2.898862 v 4.857551 h 1.01851 v 2.25249 h -1.60612 q -0.82265,0 -1.37108,-0.50926 -0.52885,-0.50926 -0.64637,-1.37108 h -0.11752 q -0.25463,1.03811 -1.09687,1.58654 -0.84224,0.54843 -2.07621,0.54843 z m 1.0381,-2.01745 q 0.86183,0 1.41026,-0.37215 0.54843,-0.39174 0.54843,-1.116452 v -1.351496 h -1.54736 q -0.94017,0 -1.42984,0.332977 -0.48968,0.332978 -0.48968,0.959758 v 0.313393 q 0,1.23397 1.50819,1.23397 z m 12.04596,6.1307 q -2.68341,0 -3.87821,-0.64637 -1.1948,-0.64636 -1.1948,-1.88034 0,-0.86182 0.50926,-1.39067 0.52884,-0.52884 1.46902,-0.68554 v -0.21546 q -0.72472,-0.1371 -1.11646,-0.62678 -0.39174,-0.50926 -0.39174,-1.21438 0,-0.78348 0.56802,-1.253565 0.56802,-0.470086 1.42985,-0.646368 v -0.09793 q -0.95976,-0.430911 -1.44943,-1.214387 -0.48968,-0.803063 -0.48968,-1.880343 0,-1.684473 1.17522,-2.663818 1.17521,-0.979345 3.38853,-0.979345 1.0577,0 1.84117,0.235042 V 92.08111 q 0,-1.606126 1.58654,-1.606126 h 1.68447 v 2.154559 h -2.35042 v 0.176283 q 0.88141,0.470085 1.33191,1.253561 0.45049,0.783476 0.45049,1.801995 0,1.664887 -1.17521,2.644232 -1.15563,0.959758 -3.36895,0.959758 -0.92058,0 -1.82158,-0.235043 -0.56802,0.332977 -0.56802,0.901001 0,0.82265 1.33191,0.82265 h 3.03597 q 3.76068,0 3.76068,3.11431 0,1.78241 -1.3319,2.66382 -1.33191,0.88141 -4.42664,0.88141 z m 0.0196,-10.048078 q 0.901,0 1.37109,-0.391738 0.47008,-0.411325 0.47008,-1.194801 v -0.274216 q 0,-0.763889 -0.47008,-1.155627 -0.47009,-0.411325 -1.37109,-0.411325 -0.90099,0 -1.39067,0.411325 -0.47008,0.391738 -0.47008,1.155627 v 0.274216 q 0,0.783476 0.47008,1.194801 0.47009,0.391738 1.39067,0.391738 z m 0.68554,8.128568 q 1.21439,0 1.76283,-0.29381 0.56802,-0.2938 0.56802,-0.94017 0,-0.52884 -0.41133,-0.78347 -0.39174,-0.25463 -1.31232,-0.25463 h -3.68234 q -0.23504,0.17628 -0.35256,0.45049 -0.11752,0.29381 -0.11752,0.58761 0,0.62678 0.52884,0.92059 0.52885,0.31339 1.74324,0.31339 z m 12.79024,-2.44837 h -6.69872 v -2.37001 h 1.86076 v -9.61717 h -1.86076 v -2.370015 h 6.69872 v 2.370015 h -1.86075 v 9.61717 h 1.86075 z m 10.16562,3.7411 q -3.01638,0 -3.01638,-2.87927 v -0.70513 q -2.37002,-0.41133 -3.70193,-2.29167 -1.33191,-1.880341 -1.33191,-5.033832 0,-2.389602 0.76389,-4.054488 0.78348,-1.684474 2.19373,-2.526711 1.41026,-0.861823 3.32978,-0.861823 1.89993,0 3.31018,0.861823 1.41026,0.842237 2.17415,2.526711 0.78348,1.664886 0.78348,4.054488 0,3.075143 -1.25357,4.935902 -1.25356,1.86075 -3.48646,2.33084 v 1.21439 h 2.21332 v 2.42877 z m -1.76282,-6.1307 q 1.42984,0 2.27208,-0.979343 0.84223,-0.979345 0.84223,-2.72258 v -2.174145 q 0,-1.743235 -0.84223,-2.72258 -0.84224,-0.979345 -2.27208,-0.979345 -1.46902,0 -2.31126,0.979345 -0.82265,0.979345 -0.82265,2.72258 v 2.174145 q 0,1.743235 0.82265,2.72258 0.84224,0.979343 2.31126,0.979343 z m 12.8686,-11.693378 -1.05769,1.508191 q -1.50819,-1.233974 -3.09473,-2.193733 l 1.39067,-1.899929 q 1.21439,0.685542 2.76175,1.919516 v -0.685541 h 2.87928 v -1.116453 h 2.07621 v 1.116453 h 3.1339 v -1.116453 h 2.07621 v 1.116453 h 3.1535 v 1.841169 h -3.1535 v 0.88141 h -2.07621 v -0.88141 h -3.1339 v 0.88141 h -2.07621 v -0.88141 h -2.87928 z m 7.99146,11.830488 q 0.60719,0.58761 1.91951,1.07728 1.33191,0.47009 3.62358,0.95976 l -0.7443,2.01745 q -2.19373,-0.58761 -3.40812,-1.03811 -1.21439,-0.43091 -1.99787,-1.11645 -0.76388,-0.70513 -0.92058,-1.78241 h -0.19587 q -0.11752,1.13604 -0.95976,1.84117 -0.82265,0.68554 -2.0958,1.09687 -1.25356,0.41132 -3.64316,0.95975 l -0.68554,-2.07621 q 2.48754,-0.4505 3.85862,-0.90099 1.39067,-0.4505 1.99786,-1.03811 h -4.95548 v -1.880342 h 5.56268 v -0.920585 h -5.22971 v -1.841168 h 5.22971 V 95.43047 h -4.85755 v -4.465813 h 11.94801 v 4.465813 h -5.07301 v 0.920585 h 5.66061 v 1.841168 h -5.66061 v 0.920585 h 5.93483 v 1.880342 z m -9.65634,-5.268876 q -1.54737,-1.292736 -3.40812,-2.487537 l 1.46901,-1.899929 q 0.84224,0.509259 1.74324,1.194801 0.90099,0.665955 1.60612,1.292735 z m 4.15242,-3.055557 v 1.07728 h 2.85969 v -1.07728 z m 4.87714,1.07728 h 3.03597 v -1.07728 h -3.03597 z m -7.52137,4.269944 q -0.43091,1.70406 -1.13604,3.623579 -0.70513,1.91951 -1.50819,3.31018 l -2.0958,-1.56695 q 1.54736,-2.33084 2.66382,-6.228633 z m 30.30093,-7.247153 h -12.65314 v 2.467949 h -2.33084 v -4.622508 h 7.3255 V 86.77306 h 2.38961 v 1.841169 h 7.63889 v 4.622508 h -2.37002 z m 2.60506,6.209047 v 2.154559 h -7.58013 v 3.133906 q 0,1.21439 -0.56802,1.78241 -0.54843,0.56802 -1.86076,0.56802 h -3.2906 l -0.5876,-2.21332 h 3.93696 v -3.271016 h -7.87393 v -2.154559 h 7.87393 v -1.331909 q 2.05663,-0.705128 3.56482,-1.586539 h -8.20691 v -2.076211 h 11.32123 V 94.0398 q -1.56696,1.606126 -4.30912,2.761753 v 0.176282 z m 9.5584,7.031695 q -3.03596,0 -4.75961,-1.68447 -1.70406,-1.68447 -1.70406,-4.68127 0,-2.507123 1.31232,-4.309118 1.33191,-1.821582 3.46688,-2.644232 v -0.137108 h -5.03383 v -2.311254 h 7.0317 l 0.17628,2.193733 q -0.68554,0.430911 -1.27315,0.959758 -3.15349,2.8401 -3.15349,6.169873 0,1.860756 1.01852,2.879278 1.0381,1.01852 2.93803,1.01852 2.17415,0 3.23184,-1.44944 1.05769,-1.469013 1.05769,-4.348287 0,-1.331909 -0.48967,-3.016383 -0.47009,-1.684473 -1.25356,-3.310186 l 2.11538,-1.312322 q 1.46902,1.860755 2.74217,3.271012 1.29274,1.39067 2.76175,2.722579 l -1.66488,1.782408 q -0.97935,-0.920584 -1.76282,-1.762821 -0.76389,-0.861823 -1.62572,-1.978277 l -0.13711,0.07835 q 0.82265,1.273148 1.25357,2.605058 0.43091,1.331909 0.43091,2.605058 0,1.95869 -0.80307,3.466883 -0.80306,1.50819 -2.31125,2.35043 -1.50819,0.84223 -3.56482,0.84223 z m 25.24752,-12.927352 q -1.70406,-0.391738 -4.01532,-0.685541 -2.29166,-0.313391 -4.75961,-0.470086 l 0.48967,-2.546297 q 2.44836,0.176282 4.75962,0.489673 2.33084,0.293803 3.99572,0.646367 z m -8.93163,10.146012 q 2.44836,0.47009 3.85862,0.47009 2.58547,0 3.83903,-0.62678 1.27315,-0.64637 1.27315,-2.056627 0,-1.175214 -0.92058,-1.762821 -0.901,-0.587607 -2.66382,-0.587607 -1.95869,0 -3.32977,0.803063 -1.3515,0.803063 -1.95869,1.978277 l -2.38961,-0.293804 q 0.35257,-3.858619 1.01852,-7.854347 l 2.5463,0.274217 q -0.56802,3.035969 -0.88141,5.934831 l 0.15669,0.01959 q 0.74431,-1.547366 2.05663,-2.330842 1.31232,-0.803063 3.38853,-0.803063 2.62465,0 4.13284,1.214388 1.50819,1.194801 1.50819,3.34936 0,2.644228 -1.84117,3.917378 -1.82158,1.25356 -5.64103,1.25356 -2.11538,0 -4.42664,-0.45049 z m 32.3184,-10.243946 q -0.97934,-1.89993 -1.88034,-3.192665 l 1.4886,-0.705128 q 1.09687,1.645299 1.84117,3.192664 z m -9.85221,0.332977 q 0.19587,-0.01959 0.58761,-0.01959 3.62357,0 3.62357,4.093662 0,3.721512 -0.39173,5.562684 -0.37216,1.84116 -1.15563,2.42877 -0.76389,0.6072 -2.19373,0.6072 -0.95976,0 -2.82052,-0.25463 l 0.1567,-2.37002 q 1.41025,0.21546 2.19373,0.21546 0.7443,0 1.09687,-0.39174 0.35256,-0.41133 0.50926,-1.743235 0.15669,-1.351496 0.15669,-4.289531 0,-0.861824 -0.41132,-1.253562 -0.39174,-0.391738 -1.44943,-0.293804 l -1.39067,0.117522 q -0.68555,2.957622 -1.48861,5.445158 -0.80306,2.467952 -1.84117,4.994662 l -2.3896,-0.94017 q 1.01852,-2.29167 1.78241,-4.50499 0.78347,-2.21332 1.44943,-4.759617 l -2.9968,0.274216 -0.23504,-2.311254 3.79986,-0.31339 q 0.50926,-2.21332 0.86182,-4.211184 l 2.33084,0.372151 q -0.48967,2.507123 -0.7443,3.623577 z m 8.2265,0.411325 q 1.4886,3.114317 2.2329,6.757481 l -2.50712,0.724715 q -0.43091,-2.174146 -1.05769,-3.995728 -0.62678,-1.841168 -1.54737,-3.564816 l 1.56696,-0.685541 q -0.62679,-1.116453 -1.27315,-2.076212 l 1.46901,-0.705128 q 1.17522,1.723647 1.89993,3.173078 z m 14.4943,0.489673 q -1.05769,0.137108 -3.60399,0.293803 -1.60612,5.073007 -3.79986,9.225428 l -2.44836,-1.17521 q 2.05663,-3.603992 3.52564,-7.952283 -0.70512,0.01959 -1.95869,0.01959 -0.97934,0 -1.37108,-0.01959 v -2.311255 q 0.41133,0.01959 1.46902,0.01959 0.7443,0 2.58547,-0.03917 0.39174,-1.351496 0.84224,-3.192664 l 2.48753,0.548433 q -0.37215,1.488604 -0.66595,2.546297 1.52778,-0.07835 2.78134,-0.215456 z m 2.9968,6.111113 q 1.9391,0.861823 3.89779,2.565888 l -1.23397,1.86075 q -1.1948,-1.15563 -2.60506,-1.97828 v 0.35257 q 0.0392,1.46902 -0.97935,2.29167 -0.99893,0.84223 -2.93803,0.84223 -1.84117,0 -2.91845,-0.92058 -1.05769,-0.92059 -1.05769,-2.52671 0,-1.52778 1.01852,-2.467952 1.0381,-0.940171 2.78134,-0.940171 0.86182,0 1.72364,0.176282 l -0.0196,-1.077279 q -0.0196,-1.547365 0.80306,-2.370015 0.82265,-0.842237 2.33084,-0.842237 0.52885,0 1.54737,0.293804 l 0.0392,-0.09794 q -1.37108,-0.783476 -4.34829,-1.821582 l 0.97934,-2.232906 q 3.23184,1.155627 5.3864,2.370015 l -1.07728,2.448362 q -0.58761,-0.09793 -0.97934,-0.09793 -1.17522,0 -1.802,0.607194 -0.62678,0.607194 -0.58761,1.684473 z m -2.2525,1.469017 q -0.88141,-0.25463 -1.70406,-0.25463 -0.70512,0 -1.11645,0.352565 -0.41132,0.352566 -0.41132,0.940166 0,0.6072 0.39173,0.95976 0.41133,0.33298 1.21439,0.33298 0.84224,0 1.25356,-0.31339 0.41133,-0.33298 0.39174,-1.01852 z m 17.25606,-9.049148 h 7.0317 v 1.566952 q 0,2.840101 -0.11752,5.073007 -0.11752,2.232907 -0.31339,3.38853 -0.27422,1.56696 -1.09687,2.19374 -0.80306,0.62678 -2.46795,0.62678 h -2.50712 l -0.54843,-2.62465 h 2.58547 q 0.78347,0 1.11645,-0.25463 0.33298,-0.25463 0.41132,-1.018515 0.11753,-0.940172 0.19587,-2.663819 0.0979,-1.743234 0.0979,-3.212252 V 93.21715 h -4.4854 q -0.35257,3.917381 -1.95869,6.444091 -1.60613,2.526709 -4.60292,4.367879 l -1.6453,-2.19373 q 1.76282,-1.03811 2.89886,-2.213323 1.13604,-1.175214 1.78241,-2.722579 0.66595,-1.547365 0.88141,-3.682338 h -5.05342 v -2.467949 h 5.17094 v -3.329773 h 2.62464 z m 27.08868,-0.979345 q -0.1371,3.701924 -1.58653,6.620372 -1.42985,2.918449 -4.05449,4.916312 -2.60506,1.97828 -6.24822,2.91845 l -1.21439,-2.46795 q 4.07407,-1.01852 6.48326,-3.075144 -1.72365,-1.429844 -3.89779,-2.957622 l 1.60612,-1.821582 q 2.13498,1.449431 4.05449,2.918448 1.46902,-1.997864 2.03704,-4.661682 h -6.44409 q -0.86182,1.312322 -1.91952,2.409189 -1.0381,1.077279 -2.62464,2.213319 l -1.66489,-2.115385 q 2.0958,-1.449431 3.50606,-3.290599 1.41025,-1.841169 2.27208,-4.113249 l 2.5463,0.705128 q -0.47009,1.175214 -0.82265,1.801995 z m 12.08512,0.979345 h 7.0317 v 1.566952 q 0,2.840101 -0.11752,5.073007 -0.11753,2.232907 -0.31339,3.38853 -0.27422,1.56696 -1.09687,2.19374 -0.80306,0.62678 -2.46795,0.62678 h -2.50712 l -0.54844,-2.62465 h 2.58547 q 0.78348,0 1.11646,-0.25463 0.33297,-0.25463 0.41132,-1.018515 0.11752,-0.940172 0.19587,-2.663819 0.0979,-1.743234 0.0979,-3.212252 V 93.21715 h -4.4854 q -0.35257,3.917381 -1.95869,6.444091 -1.60613,2.526709 -4.60293,4.367879 l -1.6453,-2.19373 q 1.76283,-1.03811 2.89887,-2.213323 1.13604,-1.175214 1.7824,-2.722579 0.66596,-1.547365 0.88141,-3.682338 h -5.05342 v -2.467949 h 5.17095 v -3.329773 h 2.62464 z m 27.97011,1.13604 v 2.546297 h -6.52244 v 0.470086 q 0,3.427708 -1.41026,5.641026 -1.39067,2.21332 -4.42664,3.56482 l -1.46901,-2.35043 q 1.76282,-0.76389 2.76175,-1.70406 1.01852,-0.959759 1.44943,-2.193734 0.43091,-1.253562 0.43091,-2.957622 v -0.470086 h -7.26674 v -2.546297 h 7.26674 v -4.309118 h 2.66382 v 4.309118 z"
       id="use1-1-3"
       style="font-weight:bold;font-size:19.5869px;line-height:1.25;font-family:'IBM Plex Sans JP';-inkscape-font-specification:'IBM Plex Sans JP, Bold';stroke-width:0.367254"
       transform="scale(0.80186919,1.2470862)"
       aria-label="01239agIQ漢字ひらがなカタカナ"
       inkscape:export-filename="text-plex-path.svg"
       inkscape:export-xdpi="304.3208"
       inkscape:export-ydpi="304.3208" />
    <rect
       style="fill:#00ffff;stroke-width:0.264583"
       id="rect6"
       width="12.122679"
       height="0.053941123"
       x="104.49846"
       y="101.00841" />
  </g>
</svg>
